<ttFont>
          <CharString index="0">
            -90 callsubr
            89 5 rmoveto
            -89 callsubr
            165 44 120 245 vhcurveto
            return
          </CharString>
          <CharString index="1">
            445 96 callsubr
            170 -60 77 -130 -67 callsubr
            124 66 57 210 vhcurveto
            -87 -15 -91 callsubr
            return
          </CharString>
          <CharString index="2">
            408 -55 callsubr
            -120 -62 -72 -185 -223 65 -34 115 36 56 7 9 32 vhcurveto
            72 vlineto
            -7 -30 -49 -9 -85 callsubr
            115 5 25 33 64 hhcurveto
            return
          </CharString>
          <CharString index="3">
            -32 -12 12 20 hvcurveto
            240 93 callsubr
            -40 51 -130 -49 -49 -9 -11 -37 97 callsubr
            14 50 38 7 57 hhcurveto
            50 25 -31 -42 hvcurveto
            -54 -79 vlineto
            -111 -67 -59 -108 return
          </CharString>
          <CharString index="4">
            436 hmoveto
            70 vlineto
            -104 callsubr
            hvcurveto
            return
          </CharString>
          <CharString index="5">
            -64 callsubr
            208 -20 19 callsubr
            hintmask 01111110
            -103 callsubr
            hintmask 10111110
            -57 callsubr
            vhcurveto
            hintmask 01111110
            -96 callsubr
            return
          </CharString>
          <CharString index="6">
            hstem
            65 85 175 83 vstem
            -105 callsubr
            return
          </CharString>
          <CharString index="7">
            -107 -17 -45 -51 -51 -17 44 108 108 17 44 51 51 17 -45 -107 vhcurveto
            69 4 rmoveto
            125 -20 82 -117 -116 -21 -82 -125 -125 21 -90 116 116 21 90 125 vhcurveto
            return
          </CharString>
          <CharString index="8">
            hstem
            65 95 callsubr
            87 vstem
            -106 callsubr
            return
          </CharString>
          <CharString index="9">
            11 -31 callsubr
            208 -20 -101 callsubr
            return
          </CharString>
          <CharString index="10">
            382 rlineto
            225 -634 rmoveto
            -166 700 rlineto
            -115 hlineto
            -169 -700 -71 callsubr
            return
          </CharString>
          <CharString index="11">
            -41 15 41 -8 19 hhcurveto
            -187 65 rmoveto
            -53 -29 20 62 66 43 27 43 hvcurveto
            84 -105 hlineto
            -20 -19 -50 -69 vhcurveto
            return
          </CharString>
          <CharString index="12">
            rmoveto
            94 callsubr
            81 -97 callsubr
            return
          </CharString>
          <CharString index="13">
            11 callsubr
            208 -20 -99 callsubr
            return
          </CharString>
          <CharString index="14">
            rmoveto
            -87 -534 hlineto
            -70 -40 -30 -60 -60 -41 30 70 vhcurveto
            534 -87 -515 vlineto
            -135 73 -57 115 115 72 57 135 vhcurveto
            endchar
          </CharString>
          <CharString index="15">
            89 callsubr
            235 -20 hstemhm
            75 58 callsubr
            hintmask 01111100
            -22 callsubr
            hintmask 10111100
            -88 callsubr
            hintmask 01111100
            7 -41 rlineto
            return
          </CharString>
          <CharString index="16">
            rmoveto
            -130 -28 -52 -75 -75 -28 52 130 142 23 50 80 80 23 -50 -142 vhcurveto
            return
          </CharString>
          <CharString index="17">
            rmoveto
            -215 -30 -75 callsubr
            30 -61 -220 vhcurveto
            return
          </CharString>
          <CharString index="18">
            -81 callsubr
            -245 44 -120 165 return
          </CharString>
          <CharString index="19">
            -35 -2 -37 -47 -55 hhcurveto
            -61 -11 36 63 hvcurveto
            336 -85 -326 vlineto
            -122 33 -59 111 51 36 17 31 28 vhcurveto
            return
          </CharString>
          <CharString index="20">
            428 500 rmoveto
            -87 hlineto
            -98 -413 -116 413 rlineto
            -92 hlineto
            155 -500 rlineto
            20 hlineto
            -16 -55 rlineto
            -29 -8 -12 -16 -20 hhcurveto
            -20 -18 2 2 -14 hvcurveto
            -73 vlineto
            -2 12 24 -4 21 hhcurveto
            81 22 53 78 21 hvcurveto
            return
          </CharString>
          <CharString index="21">
            43 21 -39 50 hhcurveto
            34 26 8 25 26 hvcurveto
            73 vlineto
            -23 -26 -19 -13 -35 hhcurveto
            return
          </CharString>
          <CharString index="22">
            -55 hhcurveto
            -50 -32 23 132 -3 hvcurveto
            95 216 rmoveto
            59 21 -45 -76 hvcurveto
            -27 -174 vlineto
            return
          </CharString>
          <CharString index="23">
            rmoveto
            80 -85 -80 vlineto
            -66 callsubr
            return
          </CharString>
          <CharString index="24">
            rmoveto
            -113 135 rlineto
            -88 hlineto
            -112 -135 rlineto
            96 hlineto
            60 84 60 -84 rlineto
            endchar
          </CharString>
          <CharString index="25">
            -84 callsubr
            endchar
          </CharString>
          <CharString index="26">
            235 -44 114 -165 -54 callsubr
            return
          </CharString>
          <CharString index="27">
            332 252 -95 callsubr
            return
          </CharString>
          <CharString index="28">
            hstem
            60 87 116 89 vstem
            352 145 rmoveto
            87 -37 47 -104 17 vhcurveto
            -44 7 -20 21 37 vvcurveto
            37 11 37 62 54 27 -10 44 callsubr
            5 -20 -35 12 -52 hhcurveto
            -95 -73 -43 -108 -74 38 -47 102 -18 hvcurveto
            50 -9 13 -20 -48 vvcurveto
            -35 -20 -39 -52 -47 -55 11 5 -25 97 callsubr
            -6 22 41 -10 57 hhcurveto
            102 66 41 111 hvcurveto
            return
          </CharString>
          <CharString index="29">
            -29 callsubr
            hintmask 11101100
            -86 callsubr
            hintmask 11011100
            -68 callsubr
          </CharString>
          <CharString index="30">
            730 rmoveto
            -111 115 rlineto
            -92 hlineto
            -110 -115 rlineto
            96 hlineto
            60 64 60 -64 rlineto
            return
          </CharString>
          <CharString index="31">
            rmoveto
            147 -61 42 -96 20 vhcurveto
            -63 13 -14 23 81 vvcurveto
            79 48 30 50 35 47 -7 44 callsubr
            8 -29 -44 7 -33 hhcurveto
            -115 -82 -50 -143 -118 42 -48 111 -23 hvcurveto
            54 -11 27 -28 -97 vvcurveto
            -83 -30 -40 -69 -54 -41 7 8 -31 97 callsubr
            -9 34 50 -6 32 hhcurveto
            119 79 40 166 hvcurveto
            endchar
          </CharString>
          <CharString index="32">
            -72 -90 -90 -30 72 215 -16 callsubr
            90 return
          </CharString>
          <CharString index="33">
            rmoveto
            132 135 rlineto
            -109 hlineto
            -104 -8 callsubr
          </CharString>
          <CharString index="34">
            39 41 callsubr
            -44 -37 callsubr
            hstemhm
            80 58 callsubr
            hintmask 11011100
            165 -170 rmoveto
            174 vlineto
            -7 17 20 -4 22 hhcurveto
            51 36 17 31 28 hvcurveto
            hintmask 10111100
            7 -41 rlineto
            70 500 -85 -353 hlineto
            hintmask 11011100
            -35 -2 -37 -47 -55 hhcurveto
            -57 -14 31 54 -1 hvcurveto
            350 -85 -670 vlineto
            endchar
          </CharString>
          <CharString index="35">
            73 -241 252 216 73 -216 229 241 73 -328 -700 vlineto
            return
          </CharString>
          <CharString index="36">
            83 callsubr
            39 177 rlineto
            195 hlineto
            38 -177 rlineto
            return
          </CharString>
          <CharString index="37">
            726 rmoveto
            132 115 rlineto
            -111 hlineto
            -104 -115 rlineto
            return
          </CharString>
          <CharString index="38">
            260 -30 callsubr
            260 -27 callsubr
          </CharString>
          <CharString index="39">
            -39 -28 39 -47 hhcurveto
            -26 -30 -8 -25 -30 hvcurveto
            endchar
          </CharString>
          <CharString index="40">
            -130 -60 -77 -170 -210 66 -57 124 return
          </CharString>
          <CharString index="41">
            -115 hmoveto
            80 -85 -80 vlineto
            return
          </CharString>
          <CharString index="42">
            rmoveto
            220 -81 137 -229 -229 -91 -136 -221 -226 92 -131 228 228 82 135 222 vhcurveto
            -77 hmoveto
            -176 -43 -113 -190 -190 -53 112 177 179 53 110 190 190 43 -113 -176 vhcurveto
            return
          </CharString>
          <CharString index="43">
            24 -7 72 -65 65 175 68 127 72 return
          </CharString>
          <CharString index="44">
            73 -70 554 70 73 -227 -73 70 -554 -70 -73 vlineto
            return
          </CharString>
          <CharString index="45">
            726 rmoveto
            -104 115 rlineto
            -111 hlineto
            132 -115 rlineto
            return
          </CharString>
          <CharString index="46">
            165 hmoveto
            350 vlineto
            36 43 49 57 67 14 -18 callsubr
            -37 55 -114 return
          </CharString>
          <CharString index="47">
            rmoveto
            64 23 -36 -127 -138 -21 -69 -95 -30 -21 2 2 -15 hvcurveto
            281 vlineto
            36 39 49 56 vhcurveto
            endchar
          </CharString>
          <CharString index="48">
            rmoveto
            -104 135 rlineto
            -109 hlineto
            132 -8 callsubr
          </CharString>
          <CharString index="49">
            rmoveto
            65 -164 vlineto
            98 140 rlineto
            46 70 13 29 63 vvcurveto
            90 -45 43 -89 -40 -43 -10 -1 -9 vhcurveto
            -64 vlineto
            5 24 36 6 32 hhcurveto
            47 13 -23 -39 -59 -8 -19 -45 -68 hvcurveto
            -112 47 callsubr
            -71 vlineto
            return
          </CharString>
          <CharString index="50">
            -124 76 -24 73 67 40 20 36 25 return
          </CharString>
          <CharString index="51">
            rmoveto
            -91 hlineto
            -132 -291 -132 291 rlineto
            -96 hlineto
            179 -375 rlineto
            -325 90 325 vlineto
            return
          </CharString>
          <CharString index="52">
            220 rmoveto
            75 vlineto
            132 -46 80 -115 return
          </CharString>
          <CharString index="53">
            -165 -44 -114 -235 return
          </CharString>
          <CharString index="54">
            -6 -29 -33 -9 -54 hhcurveto
            -50 -31 22 150 148 23 44 58 51 28 -6 -8 37 hvcurveto
            74 vlineto
            return
          </CharString>
          <CharString index="55">
            73 135 72 hstem
            95 85 vstem
            301 427 rmoveto
            73 -121 85 vlineto
            29 19 21 36 36 24 -6 -5 21 vhcurveto
            71 vlineto
            4 -20 -31 8 -43 hhcurveto
            -75 -52 -43 -86 hvcurveto
            -78 -65 -73 65 return
          </CharString>
          <CharString index="56">
            -212 21 -21 500 -20 235 -45 callsubr
            return
          </CharString>
          <CharString index="57">
            205 rmoveto
            66 -72 429 -83 vlineto
            -88 -38 rlineto
            -71 vlineto
            96 39 rlineto
            -359 -88 -66 vlineto
            return
          </CharString>
          <CharString index="58">
            -95 callsubr
            endchar
          </CharString>
          <CharString index="59">
            rmoveto
            113 -135 rlineto
            88 hlineto
            112 135 rlineto
            -96 hlineto
            -60 -84 -60 84 rlineto
            endchar
          </CharString>
          <CharString index="60">
            646 -35 callsubr
            58 -1 33 callsubr
            -57 36 -45 58 58 38 44 58 vhcurveto
            return
          </CharString>
          <CharString index="61">
            40 14 18 40 46 vvcurveto
            108 -51 25 -77 -38 -45 -9 -2 -8 vhcurveto
            -64 vlineto
            5 22 33 7 33 hhcurveto
            38 19 -11 -52 -30 -3 -48 -61 hvcurveto
            -50 -63 57 hlineto
            return
          </CharString>
          <CharString index="62">
            72 callsubr
            vstem
            -20 callsubr
            return
          </CharString>
          <CharString index="63">
            -1 -5 -11 -4 -11 hhcurveto
            -26 -7 12 35 hvcurveto
            return
          </CharString>
          <CharString index="64">
            43 21 -21 177 75 448 -20 return
          </CharString>
          <CharString index="65">
            -53 callsubr
            7 -29 -48 8 -33 hhcurveto
            -120 -54 -68 -179 return
          </CharString>
          <CharString index="66">
            -6 -25 -50 -9 -41 hhcurveto
            -72 -36 34 252 242 34 36 73 39 45 -5 -8 33 hvcurveto
            74 vlineto
            7 -27 -40 7 -32 hhcurveto
            -146 -68 -51 -295 return
          </CharString>
          <CharString index="67">
            56 33 -39 56 hhcurveto
            37 35 13 20 30 hvcurveto
            78 vlineto
            -19 -28 -30 -17 -35 hhcurveto
            return
          </CharString>
          <CharString index="68">
            -193 rmoveto
            -4 21 18 -3 24 hhcurveto
            65 43 28 63 51 -23 24 -60 7 hvcurveto
            return
          </CharString>
          <CharString index="69">
            100 -100 -100 vlineto
            return
          </CharString>
          <CharString index="70">
            -21 500 -20 return
          </CharString>
          <CharString index="71">
            45 0 72 556 72 hstem
            65 75 222 75 vstem
            65 hmoveto
            372 700 -372 hlineto
            75 -628 rmoveto
            556 222 -556 vlineto
            endchar
          </CharString>
          <CharString index="72">
            rmoveto
            -25 -5 -24 -33 -29 -8 27 22 24 8 25 29 30 8 -23 -26 vhcurveto
            return
          </CharString>
          <CharString index="73">
            hstem
            65 100 vstem
            165 return
          </CharString>
          <CharString index="74">
            -61 callsubr
            -50 -41 -18 -34 -32 vhcurveto
            return
          </CharString>
          <CharString index="75">
            rmoveto
            64 -50 143 -67 vlineto
            -7 -143 rlineto
            -77 hlineto
            73 314 rlineto
            -69 hlineto
            -74 -304 rlineto
            -74 147 -117 74 117 vlineto
            return
          </CharString>
          <CharString index="76">
            -7 72 155 68 148 71 return
          </CharString>
          <CharString index="77">
            100 -34 callsubr
            return
          </CharString>
          <CharString index="78">
            rmoveto
            19 21 24 17 35 hhcurveto
            return
          </CharString>
          <CharString index="79">
            rlineto
            66 15 -10 -20 -25 -14 -6 -27 -15 -21 2 4 -18 hvcurveto
            endchar
          </CharString>
          <CharString index="80">
            rmoveto
            -38 callsubr
            endchar
          </CharString>
          <CharString index="81">
            -63 207 63 207 rlineto
            -66 hlineto
            -89 -207 89 -207 rlineto
            return
          </CharString>
          <CharString index="82">
            89 207 -89 207 rlineto
            -66 hlineto
            63 -207 -63 -207 rlineto
            return
          </CharString>
          <CharString index="83">
            rmoveto
            -80 hlineto
            -320 -910 76 callsubr
            endchar
          </CharString>
          <CharString index="84">
            -4 callsubr
            endchar
          </CharString>
          <CharString index="85">
            411 hmoveto
            500 -85 -353 vlineto
            return
          </CharString>
          <CharString index="86">
            16 0 73 252 20 callsubr
            return
          </CharString>
          <CharString index="87">
            165 hmoveto
            500 -85 -500 vlineto
            return
          </CharString>
          <CharString index="88">
            rmoveto
            75 -380 -75 vlineto
            return
          </CharString>
          <CharString index="89">
            -32 -63 vhcurveto
            -340 85 330 vlineto
            122 return
          </CharString>
          <CharString index="90">
            21 -21 700 -20 return
          </CharString>
          <CharString index="91">
            220 30 61 90 return
          </CharString>
          <CharString index="92">
            54 11 -32 -63 -53 -25 -27 -38 -33 -43 8 4 -18 hvcurveto
            -64 vlineto
            -2 7 55 -9 37 hhcurveto
            83 50 39 112 hvcurveto
            return
          </CharString>
          <CharString index="93">
            -19 callsubr
            endchar
          </CharString>
          <CharString index="94">
            19 28 30 17 35 hhcurveto
            hintmask 10100000
            -40 callsubr
            return
          </CharString>
          <CharString index="95">
            462 hmoveto
            700 -81 -626 vlineto
            -154 626 rlineto
            -142 -700 81 626 hlineto
            153 -626 rlineto
            return
          </CharString>
          <CharString index="96">
            28 callsubr
            230 92 rmoveto
            -26 callsubr
            return
          </CharString>
          <CharString index="97">
            rmoveto
            -64 -28 33 120 139 26 78 95 30 21 -2 -2 15 hvcurveto
            -281 vlineto
            -36 -33 -49 -62 vhcurveto
            endchar
          </CharString>
          <CharString index="98">
            hstem
            2 callsubr
            vstem
            return
          </CharString>
          <CharString index="99">
            -135 rlineto
            endchar
          </CharString>
          <CharString index="100">
            165 -170 rmoveto
            167 vlineto
            -2 15 18 -2 23 hhcurveto
            159 54 70 219 149 -41 76 -117 return
          </CharString>
          <CharString index="101">
            -7 59 -31 -21 285 59 12 59 233 59 -7 -20 hstemhm
            85 69 136 69 138 69 136 69 return
          </CharString>
          <CharString index="102">
            -4 callsubr
            -95 157 rmoveto
            -23 callsubr
          </CharString>
          <CharString index="103">
            12 callsubr
            -30 47 callsubr
            65 hlineto
            return
          </CharString>
          <CharString index="104">
            -17 callsubr
            hstem
            return
          </CharString>
          <CharString index="105">
            -7 21 callsubr
            return
          </CharString>
          <CharString index="106">
            21 -37 callsubr
            return
          </CharString>
          <CharString index="107">
            hstem
            353 411 rmoveto
            89 -288 -74 197 vlineto
            -217 -346 rlineto
            -80 298 74 -206 vlineto
            return
          </CharString>
          <CharString index="108">
            18 callsubr
            hintmask 10111000
            -44 callsubr
            return
          </CharString>
          <CharString index="109">
            65 89 240 89 return
          </CharString>
          <CharString index="110">
            -21 247 -20 hstem
            return
          </CharString>
          <CharString index="111">
            hmoveto
            -38 callsubr
            return
          </CharString>
          <CharString index="112">
            845 rmoveto
            113 -115 rlineto
            88 hlineto
            112 115 rlineto
            -96 hlineto
            -60 -67 -60 67 rlineto
            return
          </CharString>
          <CharString index="113">
            75 158 -20 hstem
            235 80 vstem
            465 74 callsubr
            -150 158 -80 -158 return
          </CharString>
          <CharString index="114">
            rmoveto
            88 -323 -74 235 vlineto
            -258 -538 rlineto
            -88 336 74 -247 vlineto
            endchar
          </CharString>
          <CharString index="115">
            -79 -21 910 -20 hstem
            315 810 -24 callsubr
          </CharString>
          <CharString index="116">
            -140 0 73 554 73 return
          </CharString>
          <CharString index="117">
            -212 -1 callsubr
            return
          </CharString>
          <CharString index="118">
            53 -7 70 374 70 return
          </CharString>
          <CharString index="119">
            90 -95 -90 vlineto
            return
          </CharString>
          <CharString index="120">
            rmoveto
            -90 95 90 vlineto
            30 157 rlineto
            -65 hlineto
            return
          </CharString>
          <CharString index="121">
            -52 -39 39 -54 hhcurveto
            -29 -27 -5 -28 -46 hvcurveto
            return
          </CharString>
          <CharString index="122">
            231 200 rmoveto
            -78 hlineto
            -245 -700 rlineto
            78 hlineto
            357 204 rmoveto
            return
          </CharString>
          <CharString index="123">
            -35 -19 -20 -33 -16 -37 2 2 -21 vhcurveto
            -71 vlineto
            -3 27 28 -2 32 hhcurveto
            return
          </CharString>
          <CharString index="124">
            -132 605 70 hstem
            290 605 rmoveto
            70 -255 -70 vlineto
            endchar
          </CharString>
          <CharString index="125">
            -23 39 26 20 4 3 14 vhcurveto
            70 vlineto
            return
          </CharString>
          <CharString index="126">
            hstemhm
            50 87 170 85 return
          </CharString>
          <CharString index="127">
            73 229 73 return
          </CharString>
          <CharString index="128">
            73 568 73 return
          </CharString>
          <CharString index="129">
            85 115 85 return
          </CharString>
          <CharString index="130">
            -34 callsubr
            4 callsubr
            -40 -140 rlineto
            68 hlineto
            return
          </CharString>
          <CharString index="131">
            95 vstem
            150 56 callsubr
            20 47 callsubr
            55 hlineto
            return
          </CharString>
          <CharString index="132">
            -43 hhcurveto
            -126 -41 -55 -94 hvcurveto
            -58 86 callsubr
            return
          </CharString>
          <CharString index="133">
            38 275 75 hstem
            410 74 callsubr
            -325 84 callsubr
          </CharString>
          <CharString index="134">
            93 275 75 hstem
            465 275 -14 callsubr
          </CharString>
          <CharString index="135">
            113 -21 414 -20 hstem
            return
          </CharString>
          <CharString index="136">
            -20 45 callsubr
            vstem
            return
          </CharString>
          <CharString index="137">
            38 callsubr
            hintmask 11110010
            return
          </CharString>
          <CharString index="138">
            73 callsubr
            280 rmoveto
            105 vlineto
            -380 179 rlineto
            -92 vlineto
            return
          </CharString>
          <CharString index="139">
            -167 42 callsubr
            105 80 vstem
            185 -110 rmoveto
            return
          </CharString>
          <CharString index="140">
            rmoveto
            60 -36 42 -60 -58 -36 -44 -58 return
          </CharString>
          <CharString index="141">
            140 75 -140 200 -80 -200 -141 -75 141 return
          </CharString>
          <CharString index="142">
            9 callsubr
            141 -20 65 callsubr
            return
          </CharString>
          <CharString index="143">
            0 76 624 29 callsubr
            395 hmoveto
            76 -223 return
          </CharString>
          <CharString index="144">
            72 370 72 193 72 callsubr
            182 87 vstem
            return
          </CharString>
          <CharString index="145">
            735 -84 callsubr
            return
          </CharString>
          <CharString index="146">
            75 callsubr
            87 201 87 vstem
            return
          </CharString>
          <CharString index="147">
            -20 -9 callsubr
            return
          </CharString>
          <CharString index="148">
            -149 -21 163 72 return
          </CharString>
          <CharString index="149">
            -89 -21 920 -20 hstem
            return
          </CharString>
          <CharString index="150">
            78 -7 73 634 -20 return
          </CharString>
          <CharString index="151">
            -8 34 vhcurveto
            73 vlineto
            return
          </CharString>
          <CharString index="152">
            hstem
            85 87 return
          </CharString>
          <CharString index="153">
            vlineto
            -91 46 -24 39 26 20 5 3 14 vhcurveto
            endchar
          </CharString>
          <CharString index="154">
            -157 rlineto
            return
          </CharString>
          <CharString index="155">
            rmoveto
            295 -73 51 -141 -69 -93 -7 0 vhcurveto
            return
          </CharString>
          <CharString index="156">
            136 rlineto
            92 vlineto
            -380 -179 rlineto
            -105 vlineto
            return
          </CharString>
          <CharString index="157">
            75 200 -20 hstem
            196 80 vstem
            276 hmoveto
            return
          </CharString>
          <CharString index="158">
            vlineto
            0 96 -7 78 134 68 70 298 vhcurveto
            return
          </CharString>
          <CharString index="159">
            601 -21 135 -20 hstem
            return
          </CharString>
          <CharString index="160">
            474 3 callsubr
            return
          </CharString>
          <CharString index="161" raw="1">
            660af77f 770b  
          </CharString>
          <CharString index="162">
            91 callsubr
            -7 -20 return
          </CharString>
          <CharString index="163">
            610 rmoveto
            12 callsubr
            return
          </CharString>
          <CharString index="164">
            70 -31 70 hstemhm
            return
          </CharString>
          <CharString index="165">
            85 166 85 return
          </CharString>
          <CharString index="166">
            hlineto
            15 170 rlineto
            -80 hlineto
            -15 -170 rlineto
            return
          </CharString>
          <CharString index="167">
            vlineto
            0 60 4 37 60 43 -41 -239 vhcurveto
            return
          </CharString>
          <CharString index="168">
            rmoveto
            -219 -42 -69 -62 -42 -54 4 0 vhcurveto
            return
          </CharString>
          <CharString index="169">
            hlineto
            -16 -180 76 callsubr
            16 180 rlineto
            return
          </CharString>
          <CharString index="170">
            rlineto
            -70 -500 hlineto
            endchar
          </CharString>
          <CharString index="171">
            -427 85 427 return
          </CharString>
          <CharString index="172">
            hstem
            115 87 vstem
            return
          </CharString>
          <CharString index="173">
            6 -175 75 121 -37 callsubr
            return
          </CharString>
          <CharString index="174">
            rmoveto
            -120 hlineto
            -103 -147 rlineto
            76 hlineto
            return
          </CharString>
          <CharString index="175">
            418 -79 -21 121 -21 117 64 return
          </CharString>
          <CharString index="176">
            -152 -83 -86 90 callsubr
            87 return
          </CharString>
          <CharString index="177">
            -1 callsubr
            hstem
            return
          </CharString>
          <CharString index="178">
            hlineto
            0 39 6 55 71 return
          </CharString>
          <CharString index="179">
            75 callsubr
            85 return
          </CharString>
          <CharString index="180">
            -20 hstem
            465 return
          </CharString>
          <CharString index="181">
            275 rmoveto
            75 return
          </CharString>
          <CharString index="182">
            -20 hstem
            80 return
          </CharString>
          <CharString index="183">
            rlineto
            80 hlineto
            return
          </CharString>
          <CharString index="184">
            -132 -120 75 790 75 hstem
            return
          </CharString>
          <CharString index="185">
            41 callsubr
            370 72 return
          </CharString>
          <CharString index="186">
            -7 72 307 72 193 70 hstem
            return
          </CharString>
          <CharString index="187">
            351 rmoveto
            71 -25 41 -42 9 vhcurveto
            return
          </CharString>
          <CharString index="188">
            -132 -125 70 810 70 hstem
            return
          </CharString>
          <CharString index="189">
            -66 callsubr
            endchar
          </CharString>
          <CharString index="190">
            rlineto
            89 hlineto
            return
          </CharString>
          <CharString index="191">
            -75 vlineto
            endchar
          </CharString>
          <CharString index="192">
            73 -9 callsubr
            return
          </CharString>
          <CharString index="193">
            -65 -73 65 64 callsubr
            return
          </CharString>
          <CharString index="194">
            -20 130 -20 hstem
            172 75 return
          </CharString>
          <CharString index="195">
            -137 -99 -21 940 -20 hstem
            return
          </CharString>
          <CharString index="196">
            34 -7 72 -44 -37 callsubr
            return
          </CharString>
          <CharString index="197">
            -7 0 vhcurveto
            -700 return
          </CharString>
          <CharString index="198">
            21 92 callsubr
            return
          </CharString>
          <CharString index="199">
            -21 435 72 return
          </CharString>
          <CharString index="200">
            vlineto
            114 return
          </CharString>
          <CharString index="201">
            -163 hlineto
            return
          </CharString>
          <CharString index="202">
            87 206 return
          </CharString>
          <CharString index="203">
            260 rmoveto
            return
          </CharString>
          <CharString index="204">
            vhcurveto
            -73 vlineto
            return
          </CharString>
        <CharString name=".notdef">
          -36 callsubr
        </CharString>
        <CharString name=".null">
          -457 endchar
        </CharString>
        <CharString name="A">
          -43 callsubr
          hstem
          -80 callsubr
          endchar
        </CharString>
        <CharString name="AE">
          291 0 73 104 75 73 20 callsubr
          hstem
          688 hmoveto
          73 -221 vlineto
          -30 252 rlineto
          226 73 -235 hlineto
          -27 229 rlineto
          267 73 -404 hlineto
          -239 -700 83 callsubr
          57 177 rlineto
          199 hlineto
          20 -177 rlineto
          -70 627 rmoveto
          41 -375 rlineto
          -166 hlineto
          endchar
        </CharString>
        <CharString name="Aacute">
          -43 callsubr
          161 -20 hstem
          244 -70 callsubr
          171 -474 rmoveto
          -171 hlineto
          89 -97 callsubr
          endchar
        </CharString>
        <CharString name="Acircumflex">
          -43 callsubr
          165 -20 hstem
          406 -77 callsubr
          23 -478 -49 callsubr
        </CharString>
        <CharString name="Adieresis">
          -43 callsubr
          55 80 hstem
          107 85 115 82 vstem
          -80 callsubr
          6 735 rmoveto
          -6 80 rlineto
          -79 -80 hlineto
          82 callsubr
        </CharString>
        <CharString name="Agrave">
          -43 callsubr
          161 -20 hstem
          337 -62 callsubr
          78 -474 -49 callsubr
        </CharString>
        <CharString name="Aring">
          43 21 -21 177 75 453 -20 118 52 hstem
          156 57 75 58 vstem
          346 753 33 callsubr
          -32 11 -29 21 -18 vhcurveto
          -163 -674 -71 callsubr
          89 hlineto
          -160 675 rlineto
          19 19 12 27 32 vvcurveto
          -14 -501 rmoveto
          94 callsubr
          81 382 rlineto
          38 120 -35 callsubr
          endchar
        </CharString>
        <CharString name="Atilde">
          -43 callsubr
          51 57 callsubr
          hintmask 11101000
          -80 callsubr
          -264 734 -29 callsubr
          hintmask 11110000
          -86 callsubr
          hintmask 11101000
          -68 callsubr
        </CharString>
        <CharString name="B">
          55 -7 73 266 72 231 72 hstemhm
          85 87 176 87 -72 89 hintmask 11110100
          363 204 rmoveto
          -117 -45 -21 -54 -42 -50 5 0 vhcurveto
          261 93 vlineto
          73 25 -41 -87 hvcurveto
          hintmask 11111000
          -15 313 rmoveto
          -106 -53 -7 -40 vhcurveto
          -83 225 hlineto
          0 35 6 48 75 18 -35 -83 vhcurveto
          hintmask 11110100
          104 -306 rmoveto
          112 -57 36 -40 14 vhcurveto
          hintmask 11111000
          40 17 40 51 83 vvcurveto
          134 -72 49 -120 -65 -93 90 callsubr
          vlineto
          0 86 -7 84 vhcurveto
          hintmask 11110100
          120 77 51 167 hvcurveto
          endchar
        </CharString>
        <CharString name="C">
          -34 -7 75 564 75 hstem
          65 89 vstem
          378 83 rmoveto
          -41 callsubr
          -298 59 -70 143 33 56 11 6 22 hvcurveto
          endchar
        </CharString>
        <CharString name="CR">
          -197 endchar
        </CharString>
        <CharString name="Ccedilla">
          -34 -200 63 130 75 564 75 hstem
          65 89 121 76 vstem
          180 -39 callsubr
          3 20 33 1 53 10 21 6 rlinecurve
          73 vlineto
          -41 callsubr
          -252 42 -89 99 -21 hvcurveto
          -12 -75 -28 callsubr
        </CharString>
        <CharString name="D">
          69 -2 callsubr
          45 callsubr
          200 89 vstem
          372 354 61 callsubr
          560 60 callsubr
          89 7 48 callsubr
          -700 51 callsubr
          endchar
        </CharString>
        <CharString name="Delta">
          53 0 75 625 -20 hstem
          485 hmoveto
          -171 700 rlineto
          -111 hlineto
          -178 -700 rlineto
          352 75 rmoveto
          -244 hlineto
          125 550 rlineto
          endchar
        </CharString>
        <CharString name="E">
          -21 callsubr
          45 callsubr
          vstem
          413 hmoveto
          -72 callsubr
          endchar
        </CharString>
        <CharString name="Eacute">
          -21 callsubr
          141 29 callsubr
          265 -70 callsubr
          231 -726 rmoveto
          -72 callsubr
          endchar
        </CharString>
        <CharString name="Ecircumflex">
          -21 callsubr
          145 29 callsubr
          406 -77 callsubr
          104 -730 rmoveto
          -72 callsubr
          endchar
        </CharString>
        <CharString name="Edieresis">
          -21 callsubr
          35 80 hstemhm
          85 87 -64 22 callsubr
          hintmask 11111010
          413 hmoveto
          -72 callsubr
          308 735 rmoveto
          80 -85 -80 vlineto
          hintmask 11110110
          82 callsubr
        </CharString>
        <CharString name="Egrave">
          -21 callsubr
          141 29 callsubr
          327 -62 callsubr
          169 -726 rmoveto
          -72 callsubr
          endchar
        </CharString>
        <CharString name="Eth">
          79 -7 73 259 75 234 73 hstem
          95 87 200 89 vstem
          471 361 48 callsubr
          -300 -70 -75 70 -325 51 callsubr
          -89 -7 61 callsubr
          255 113 75 -113 230 60 callsubr
          endchar
        </CharString>
        <CharString name="Euro">
          13 -7 73 171 73 97 73 154 73 hstem
          119 88 vstem
          426 690 rmoveto
          5 -15 -57 12 -27 hhcurveto
          -124 -66 -37 -190 -18 hvcurveto
          -44 hlineto
          -20 -73 rlineto
          60 -97 -40 hlineto
          -20 -73 rlineto
          64 hlineto
          -194 16 59 -50 121 hhcurveto
          33 36 10 6 22 hvcurveto
          71 vlineto
          -6 -25 -30 -8 -41 hhcurveto
          -59 -34 24 147 -10 hvcurveto
          114 hlineto
          20 73 rlineto
          -137 97 147 hlineto
          20 73 rlineto
          94 callsubr
          130 11 32 24 58 hhcurveto
          33 27 -5 -8 37 hvcurveto
          endchar
        </CharString>
        <CharString name="F">
          1 21 -21 315 73 239 73 45 callsubr
          vstem
          413 627 rmoveto
          73 -328 -700 87 315 216 73 -216 239 vlineto
          endchar
        </CharString>
        <CharString name="G">
          43 -7 20 callsubr
          266 73 hstem
          65 89 193 83 vstem
          430 368 rmoveto
          -172 -73 89 -222 hlineto
          -4 -26 -30 -3 -23 hhcurveto
          -79 -35 36 252 242 39 38 86 43 45 -5 -8 42 hvcurveto
          72 vlineto
          6 -25 -53 8 -34 hhcurveto
          -158 -74 -51 -295 -298 55 -70 153 54 50 7 10 53 hvcurveto
          endchar
        </CharString>
        <CharString name="H">
          93 21 -21 322 74 304 -20 hstem
          85 95 callsubr
          87 vstem
          465 hmoveto
          700 -87 -304 -206 304 -87 -700 87 322 206 -322 vlineto
          endchar
        </CharString>
        <CharString name="I">
          9 callsubr
          65 callsubr
          272 hmoveto
          -63 callsubr
          endchar
        </CharString>
        <CharString name="Iacute">
          35 callsubr
          144 -70 callsubr
          211 -726 rmoveto
          -63 callsubr
          endchar
        </CharString>
        <CharString name="Icircumflex">
          9 callsubr
          145 -20 65 callsubr
          315 -77 callsubr
          54 -730 rmoveto
          -63 callsubr
          endchar
        </CharString>
        <CharString name="Idieresis">
          9 callsubr
          35 80 hstem
          16 85 14 87 14 85 cntrmask 00011100
          272 hmoveto
          -63 callsubr
          256 38 callsubr
          endchar
        </CharString>
        <CharString name="Igrave">
          35 callsubr
          253 -62 callsubr
          102 -726 rmoveto
          -63 callsubr
          endchar
        </CharString>
        <CharString name="J">
          -57 -7 75 559 73 hstem
          233 87 vstem
          320 251 rmoveto
          449 -248 -73 161 -383 vlineto
          -153 -25 -23 -72 -16 -56 4 5 -29 vhcurveto
          -74 vlineto
          -5 32 52 -5 23 hhcurveto
          127 51 42 216 hvcurveto
          endchar
        </CharString>
        <CharString name="K">
          35 -3 callsubr
          85 87 vstem
          462 hmoveto
          -200 394 190 306 rlineto
          -93 hlineto
          -187 -307 rlineto
          307 -87 -700 87 261 vlineto
          36 60 156 -321 rlineto
          endchar
        </CharString>
        <CharString name="L">
          -47 36 callsubr
          624 -87 -700 vlineto
          endchar
        </CharString>
        <CharString name="Lslash">
          -37 36 callsubr
          295 vlineto
          123 59 rlineto
          80 vlineto
          -123 -59 rlineto
          249 -87 -291 vlineto
          -60 -29 rlineto
          -80 vlineto
          60 29 rlineto
          -329 vlineto
          endchar
        </CharString>
        <CharString name="M">
          173 -3 callsubr
          85 80 297 83 vstem
          545 hmoveto
          700 -138 vlineto
          -90 -358 -91 358 rlineto
          -141 -700 80 628 hlineto
          107 -393 rlineto
          83 hlineto
          107 393 rlineto
          -628 vlineto
          endchar
        </CharString>
        <CharString name="N">
          90 -3 callsubr
          85 81 215 81 vstem
          -12 callsubr
          endchar
        </CharString>
        <CharString name="Ntilde">
          90 -17 callsubr
          51 57 callsubr
          85 81 215 81 hintmask 11011100
          -12 callsubr
          -187 734 -78 callsubr
        </CharString>
        <CharString name="O">
          91 -7 73 568 85 callsubr
          394 353 -107 callsubr
          endchar
        </CharString>
        <CharString name="OE">
          309 -7 73 -66 73 252 20 callsubr
          -66 66 -66 73 hstemhm
          65 89 235 87 hintmask 01110011
          706 hmoveto
          73 -276 vlineto
          32 54 12 84 2 114 rrcurveto
          205 73 -206 hlineto
          -2 102 -11 76 -30 51 rrcurveto
          274 73 -379 hlineto
          hintmask 10100111
          3 -16 -18 4 -19 hhcurveto
          -54 callsubr
          -245 44 -120 165 hvcurveto
          hintmask 01110011
          19 18 4 3 16 hvcurveto
          62 353 rmoveto
          hintmask 10101011
          -215 -25 -75 callsubr
          25 -61 -220 vhcurveto
          endchar
        </CharString>
        <CharString name="Oacute">
          91 -2 callsubr
          134 40 callsubr
          289 -70 callsubr
          188 -373 -107 callsubr
          endchar
        </CharString>
        <CharString name="Ocircumflex">
          91 -2 callsubr
          138 40 callsubr
          431 -77 callsubr
          60 -377 -107 callsubr
          endchar
        </CharString>
        <CharString name="Odieresis">
          91 -2 callsubr
          28 80 hstemhm
          65 89 -22 22 callsubr
          -23 89 hintmask 11101100
          417 30 callsubr
          262 -382 -107 callsubr
          endchar
        </CharString>
        <CharString name="Ograve">
          91 -2 callsubr
          134 40 callsubr
          346 -62 callsubr
          131 -373 -107 callsubr
          endchar
        </CharString>
        <CharString name="Omega">
          91 0 72 562 85 callsubr
          233 hmoveto
          74 vlineto
          -59 22 -20 78 179 vvcurveto
          -16 callsubr
          90 30 -61 -220 -177 -20 -78 -57 -23 vhcurveto
          -75 163 72 -60 vlineto
          47 50 16 90 146 vvcurveto
          -81 callsubr
          -146 15 -90 47 -50 vhcurveto
          -57 -72 hlineto
          endchar
        </CharString>
        <CharString name="Oslash">
          91 -70 -21 84 21 callsubr
          84 40 callsubr
          483 358 rmoveto
          152 -19 101 -57 53 vhcurveto
          38 127 rlineto
          -76 hlineto
          -28 -92 rlineto
          6 -20 -22 2 -25 hhcurveto
          -54 callsubr
          -160 19 -107 59 -55 hvcurveto
          -38 -127 rlineto
          76 hlineto
          27 91 rlineto
          -4 20 21 -3 25 hhcurveto
          165 44 120 245 hvcurveto
          -329 -5 rmoveto
          -16 callsubr
          17 15 -3 -5 13 vhcurveto
          -144 -483 rlineto
          -15 45 -6 68 97 vvcurveto
          240 hmoveto
          -215 -30 -72 -90 -17 -14 2 5 -13 vhcurveto
          145 483 rlineto
          13 -43 6 -66 -94 vvcurveto
          endchar
        </CharString>
        <CharString name="Otilde">
          91 -2 callsubr
          24 57 callsubr
          2 callsubr
          hintmask 11011100
          394 353 -107 callsubr
          -345 376 -78 callsubr
        </CharString>
        <CharString name="P">
          43 21 -21 264 73 298 72 45 callsubr
          189 89 vstem
          361 483 rmoveto
          -109 -39 -37 -56 vhcurveto
          -94 292 71 callsubr
          24 -52 -100 vhcurveto
          89 7 rmoveto
          123 -44 94 69 callsubr
          264 84 vlineto
          142 52 74 152 hvcurveto
          endchar
        </CharString>
        <CharString name="Q">
          91 -63 -21 77 73 568 85 callsubr
          503 -84 rmoveto
          84 vlineto
          -119 23 rlineto
          76 51 23 117 167 vvcurveto
          -89 callsubr
          vhcurveto
          120 360 -90 callsubr
          endchar
        </CharString>
        <CharString name="R">
          58 21 -21 290 73 272 72 45 callsubr
          187 89 vstem
          448 503 rmoveto
          123 -42 81 69 callsubr
          290 89 vlineto
          128 -290 rlineto
          96 hlineto
          -137 304 rlineto
          71 28 29 68 103 vvcurveto
          -89 -7 rmoveto
          -109 -37 -24 -56 vhcurveto
          -94 266 71 callsubr
          22 -42 -97 vhcurveto
          endchar
        </CharString>
        <CharString name="S">
          -23 -2 callsubr
          hstem
          58 89 145 89 vstem
          381 199 -76 callsubr
        </CharString>
        <CharString name="Scaron">
          -23 -2 callsubr
          138 -20 hstem
          58 89 145 89 vstem
          79 5 callsubr
          205 -646 -76 callsubr
        </CharString>
        <CharString name="T">
          -32 21 -21 624 76 hstem
          169 87 vstem
          410 624 rmoveto
          76 -395 -76 154 -624 87 624 vlineto
          endchar
        </CharString>
        <CharString name="Thorn">
          53 21 -21 141 73 288 72 126 -20 45 callsubr
          189 89 vstem
          450 362 rmoveto
          123 -44 89 -152 -30 -27 -3 -1 -25 vhcurveto
          130 -87 -700 87 141 84 vlineto
          142 52 69 152 hvcurveto
          -89 -7 rmoveto
          -109 -39 -32 -56 vhcurveto
          -94 282 71 callsubr
          24 -47 -100 vhcurveto
          endchar
        </CharString>
        <CharString name="U">
          78 -7 73 634 39 callsubr
          455 700 -93 callsubr
        </CharString>
        <CharString name="Uacute">
          43 callsubr
          161 39 callsubr
          289 -70 callsubr
          249 -26 -93 callsubr
        </CharString>
        <CharString name="Ucircumflex">
          43 callsubr
          165 39 callsubr
          426 -77 callsubr
          126 -30 -93 callsubr
        </CharString>
        <CharString name="Udieresis">
          43 callsubr
          55 80 hstemhm
          80 87 -40 22 callsubr
          -44 87 hintmask 11101100
          412 30 callsubr
          328 -35 -93 callsubr
        </CharString>
        <CharString name="Ugrave">
          43 callsubr
          161 39 callsubr
          336 -62 callsubr
          202 -26 -93 callsubr
        </CharString>
        <CharString name="V">
          16 -3 callsubr
          438 700 rmoveto
          -86 hlineto
          -119 -612 -110 612 rlineto
          -88 hlineto
          137 -700 rlineto
          119 hlineto
          endchar
        </CharString>
        <CharString name="W">
          132 -3 callsubr
          82 75 293 72 vstem
          539 700 rmoveto
          -73 hlineto
          -31 -645 -91 350 rlineto
          -82 hlineto
          -90 -350 -30 645 rlineto
          -77 hlineto
          34 -700 rlineto
          130 hlineto
          73 304 67 -304 rlineto
          136 hlineto
          endchar
        </CharString>
        <CharString name="X">
          39 -3 callsubr
          461 hmoveto
          -168 363 158 337 rlineto
          -93 hlineto
          -108 -241 -105 241 rlineto
          -95 hlineto
          155 -338 -170 -362 rlineto
          94 hlineto
          120 268 114 -268 rlineto
          endchar
        </CharString>
        <CharString name="Y">
          34 -3 callsubr
          199 90 vstem
          471 700 -56 callsubr
          endchar
        </CharString>
        <CharString name="Yacute">
          34 -17 callsubr
          161 -20 hstem
          199 90 vstem
          269 -70 callsubr
          285 -26 -56 callsubr
          endchar
        </CharString>
        <CharString name="Ydieresis">
          34 -17 callsubr
          55 80 hstem
          107 85 7 90 18 85 vstem
          471 700 -56 callsubr
          103 410 -82 callsubr
        </CharString>
        <CharString name="Z">
          -21 0 74 552 74 hstem
          391 612 7 callsubr
        </CharString>
        <CharString name="Zcaron">
          -21 0 74 552 74 145 -20 hstem
          72 5 callsubr
          222 -233 7 callsubr
        </CharString>
        <CharString name="a">
          -64 callsubr
          19 callsubr
          hintmask 01111100
          -103 callsubr
          hintmask 10111100
          -57 callsubr
          vhcurveto
          hintmask 01111100
          -96 callsubr
          endchar
        </CharString>
        <CharString name="aacute">
          -102 callsubr
          44 515 -74 callsubr
        </CharString>
        <CharString name="acircumflex">
          -102 callsubr
          183 515 -83 callsubr
        </CharString>
        <CharString name="acute">
          -154 52 callsubr
          126 580 -74 callsubr
        </CharString>
        <CharString name="adieresis">
          -64 callsubr
          88 80 hstemhm
          50 87 -40 22 callsubr
          -75 85 hintmask 0111110010000000
          -103 callsubr
          hintmask 1011110100000000
          -57 callsubr
          vhcurveto
          hintmask 0111110010000000
          -96 callsubr
          hintmask 1011101100000000
          163 530 -82 callsubr
        </CharString>
        <CharString name="ae">
          253 -7 72 165 68 137 72 hstem
          50 87 170 82 178 83 vstem
          650 230 rmoveto
          65 vlineto
          132 -46 80 -115 -55 -43 -18 -35 -30 vhcurveto
          35 -23 -44 18 -72 hhcurveto
          -49 -49 -11 -11 -37 hvcurveto
          -73 vlineto
          14 50 38 9 57 hhcurveto
          50 25 -33 -40 hvcurveto
          -64 -79 vlineto
          -111 -67 -53 -104 -124 76 -24 73 75 41 27 45 24 hvcurveto
          -57 29 50 -15 69 hhcurveto
          36 56 8 9 32 hvcurveto
          73 vlineto
          -6 -29 -50 -12 -55 hhcurveto
          -51 -36 24 141 -1 hvcurveto
          -170 -165 rmoveto
          -53 -29 20 62 63 43 20 43 hvcurveto
          84 -98 hlineto
          -22 -2 -21 -45 -65 hhcurveto
          268 371 rmoveto
          59 21 -45 -76 hvcurveto
          -17 -176 vlineto
          106 6 28 32 62 hhcurveto
          endchar
        </CharString>
        <CharString name="agrave">
          -102 callsubr
          102 515 -59 callsubr
        </CharString>
        <CharString name="ampersand">
          50 -7 73 301 73 194 73 hstemhm
          65 86 -73 85 157 79 hintmask 11110100
          65 198 rmoveto
          -149 60 -56 111 62 50 4 8 51 vhcurveto
          362 83 73 -235 vlineto
          hintmask 11101100
          -64 -20 46 58 79 45 11 50 30 60 -12 -3 12 hvcurveto
          73 vlineto
          4 -12 -37 11 -51 hhcurveto
          -103 -79 -23 -149 -63 20 -36 47 -28 hvcurveto
          hintmask 11110100
          -64 -23 -16 -89 -98 vvcurveto
          172 -132 rmoveto
          -51 -35 45 77 91 10 88 71 hvcurveto
          88 -293 hlineto
          -3 -14 -28 -5 -41 hhcurveto
          endchar
        </CharString>
        <CharString name="approxequal">
          53 169 75 -36 75 56 75 -36 75 hstemhm
          hintmask 01100000
          85 172 rmoveto
          -13 callsubr
          hintmask 01010000
          14 callsubr
          92 vmoveto
          -13 callsubr
          hintmask 10010000
          14 callsubr
          endchar
        </CharString>
        <CharString name="aring">
          -64 callsubr
          36 54 98 52 hstemhm
          50 87 -2 57 75 58 -18 85 hintmask 0111110110000000
          267 -47 callsubr
          111 -645 rmoveto
          70 vlineto
          hintmask 1011111001000000
          -104 callsubr
          -57 callsubr
          hvcurveto
          hintmask 0111111001000000
          -96 callsubr
          endchar
        </CharString>
        <CharString name="asciicircum">
          30 441 -21 340 -20 hstem
          442 420 rmoveto
          -139 340 rlineto
          -114 hlineto
          -144 -340 rlineto
          88 hlineto
          114 280 104 -280 rlineto
          endchar
        </CharString>
        <CharString name="asciitilde">
          53 263 75 -36 75 hstemhm
          hintmask 01000000
          85 266 rmoveto
          19 28 30 17 35 hhcurveto
          hintmask 10000000
          -40 callsubr
          hintmask 01000000
          14 callsubr
          endchar
        </CharString>
        <CharString name="asterisk">
          23 361 -21 382 -20 hstem
          201 77 vstem
          440 546 rmoveto
          -25 79 -143 -55 13 152 rlineto
          -90 hlineto
          13 -152 -141 57 -27 -80 145 -32 -107 -122 70 -53 91 142 88 -142 72 52 -106 123 rlineto
          endchar
        </CharString>
        <CharString name="at">
          358 -7 71 52 65 -37 70 263 67 92 71 hstemhm
          85 83 71 80 153 78 97 83 hintmask 1011111110000000
          472 281 rmoveto
          -29 -19 -38 -59 -45 -30 17 108 117 55 21 61 14 15 -3 -2 8 vhcurveto
          258 -71 rmoveto
          255 -87 51 -235 -237 -86 -80 -282 -256 62 -96 257 49 73 7 5 35 vhcurveto
          71 vlineto
          -3 -28 -80 -9 -49 hhcurveto
          -206 -30 76 205 228 40 63 200 206 33 -38 -197 hvcurveto
          hintmask 1101111110000000
          -136 -8 -84 -52 -24 -13 20 20 vhcurveto
          309 vlineto
          7 -30 -42 7 -30 hhcurveto
          -116 -93 -37 -172 hvcurveto
          hintmask 1011111110000000
          -162 71 -29 63 56 43 20 27 19 vhcurveto
          hintmask 1101111110000000
          -56 10 51 -19 33 hhcurveto
          127 18 133 152 hvcurveto
          endchar
        </CharString>
        <CharString name="atilde">
          -64 callsubr
          84 70 -31 70 19 callsubr
          hintmask 01111011
          -103 callsubr
          hintmask 10111011
          -57 callsubr
          vhcurveto
          hintmask 01110111
          -96 callsubr
          -118 529 -29 callsubr
          hintmask 10111011
          -86 callsubr
          hintmask 10110111
          -68 callsubr
        </CharString>
        <CharString name="b">
          42 -7 37 callsubr
          434 282 rmoveto
          149 -41 76 -117 -44 -37 -16 -28 -30 vhcurveto
          237 -85 -695 vlineto
          -5 37 32 -7 72 hhcurveto
          159 54 70 219 hvcurveto
          -174 153 -60 callsubr
        </CharString>
        <CharString name="backslash">
          -132 42 callsubr
          241 -110 rmoveto
          79 hlineto
          -236 920 rlineto
          -79 hlineto
          endchar
        </CharString>
        <CharString name="bar">
          32 callsubr
          920 -80 -920 vlineto
          endchar
        </CharString>
        <CharString name="braceleft">
          81 callsubr
          116 78 vstem
          35 295 rmoveto
          37 44 -11 -83 hvcurveto
          -199 vlineto
          -89 30 -38 79 13 22 3 2 10 vhcurveto
          68 vlineto
          -1 -6 -12 -2 -13 hhcurveto
          -31 -14 12 30 hvcurveto
          244 vlineto
          78 -60 35 -45 5 vhcurveto
          45 7 60 35 78 vvcurveto
          244 vlineto
          30 14 12 31 13 12 -2 -1 6 vhcurveto
          68 vlineto
          2 -10 -22 3 -13 hhcurveto
          -79 -30 -38 -89 hvcurveto
          -199 vlineto
          -83 -44 -11 -37 vhcurveto
          endchar
        </CharString>
        <CharString name="braceright">
          81 callsubr
          131 78 vstem
          290 405 rmoveto
          -37 -44 11 83 hvcurveto
          199 vlineto
          89 -30 38 -79 -13 -22 -3 -2 -10 vhcurveto
          -68 vlineto
          1 6 12 2 13 hhcurveto
          31 14 -12 -30 hvcurveto
          -244 vlineto
          -78 60 -35 45 -7 vhcurveto
          -45 -5 -60 -35 -78 vvcurveto
          -244 vlineto
          -30 -14 -12 -31 -13 -12 2 1 -6 vhcurveto
          -68 vlineto
          -2 10 22 -3 13 hhcurveto
          79 30 38 89 hvcurveto
          199 vlineto
          83 44 11 37 vhcurveto
          endchar
        </CharString>
        <CharString name="bracketleft">
          77 callsubr
          85 80 vstem
          275 -120 rmoveto
          75 -110 790 110 75 -190 -940 vlineto
          endchar
        </CharString>
        <CharString name="bracketright">
          77 callsubr
          160 80 vstem
          240 -120 rmoveto
          940 -190 -75 110 -790 -110 84 callsubr
        </CharString>
        <CharString name="breve">
          -103 585 61 69 -20 hstem
          238 715 rmoveto
          -36 -4 -13 -33 -44 hhcurveto
          -44 -14 33 36 -2 hvcurveto
          -82 hlineto
          -55 9 28 -75 105 hhcurveto
          105 28 75 55 9 hvcurveto
          endchar
        </CharString>
        <CharString name="brokenbar">
          32 callsubr
          360 -80 -360 vlineto
          80 560 rmoveto
          360 -80 -360 vlineto
          endchar
        </CharString>
        <CharString name="bullet">
          -167 256 -21 155 -20 hstem
          220 235 rmoveto
          155 -150 -155 vlineto
          endchar
        </CharString>
        <CharString name="c">
          -53 -7 75 364 75 hstem
          65 87 vstem
          349 83 rmoveto
          -42 callsubr
          -229 60 -38 115 36 41 7 9 32 hvcurveto
          endchar
        </CharString>
        <CharString name="caron">
          -74 600 -21 135 -20 hstem
          35 714 -48 callsubr
        </CharString>
        <CharString name="ccedilla">
          -53 -200 63 130 75 364 75 hstem
          65 87 107 76 vstem
          164 -39 callsubr
          3 20 32 2 34 6 28 8 rlinecurve
          74 vlineto
          -42 callsubr
          -193 42 -57 82 -13 hvcurveto
          -11 -73 -28 callsubr
        </CharString>
        <CharString name="cedilla">
          -155 -200 63 187 -20 hstem
          161 76 vstem
          66 -39 callsubr
          11 77 rlineto
          -65 hlineto
          -20 -126 -28 callsubr
        </CharString>
        <CharString name="cent">
          13 -89 -21 104 73 533 -20 hstem
          99 87 51 80 vstem
          317 -110 rmoveto
          105 vlineto
          23 3 23 4 20 6 rrcurveto
          74 vlineto
          -53 callsubr
          -18 4 -24 5 -24 3 rrcurveto
          97 -80 -97 vlineto
          -95 -13 -43 -71 -160 vvcurveto
          -203 47 -53 91 -9 vhcurveto
          -104 vlineto
          endchar
        </CharString>
        <CharString name="circumflex">
          -74 52 callsubr
          348 580 -83 callsubr
        </CharString>
        <CharString name="colon">
          0 100 300 -30 callsubr
          4 callsubr
          100 400 -27 callsubr
        </CharString>
        <CharString name="comma">
          -119 -21 240 -20 23 callsubr
          endchar
        </CharString>
        <CharString name="copyright">
          343 -7 68 94 50 290 50 94 68 hstem
          85 77 130 57 289 77 vstem
          471 211 rmoveto
          -3 -14 -25 -3 -23 hhcurveto
          -40 -20 9 138 133 19 10 40 20 25 -2 -4 18 hvcurveto
          48 vlineto
          3 -8 -32 5 -15 hhcurveto
          -80 -44 -27 -162 -164 39 -37 79 18 31 5 3 12 hvcurveto
          244 187 -65 callsubr
          endchar
        </CharString>
        <CharString name="currency">
          113 65 70 -67 -21 418 70 18 -20 hstemhm
          65 87 265 87 hintmask 01011100
          481 47 rmoveto
          56 56 -63 63 rlineto
          19 35 11 45 54 vvcurveto
          54 -11 44 -19 35 vhcurveto
          63 64 -56 56 -60 -59 rlineto
          hintmask 10101100
          27 -37 -47 14 -52 hhcurveto
          -53 -47 -14 -27 -38 hvcurveto
          hintmask 01011100
          -59 59 -56 -56 63 -64 rlineto
          -19 -35 -11 -44 -54 vvcurveto
          -54 11 -45 19 -35 vhcurveto
          -63 -63 56 -56 59 59 rlineto
          hintmask 10101100
          -28 38 47 -13 53 hhcurveto
          52 47 13 28 37 hvcurveto
          hintmask 01101100
          -4 194 rmoveto
          hintmask 10101100
          -108 -57 -57 -75 -75 -58 57 108 108 58 57 75 75 57 -57 -108 vhcurveto
          endchar
        </CharString>
        <CharString name="d">
          47 -7 72 -44 92 callsubr
          193 -20 hstemhm
          65 87 187 85 hintmask 01111100
          424 hmoveto
          700 -85 -197 vlineto
          2 -15 -18 2 -23 hhcurveto
          -153 -65 -82 -197 hvcurveto
          hintmask 10111100
          -156 36 -79 127 51 38 18 31 30 vhcurveto
          hintmask 01111100
          7 -42 rlineto
          hintmask 10111100
          -110 65 -10 callsubr
        </CharString>
        <CharString name="dagger">
          13 21 -21 425 50 callsubr
          425 34 callsubr
          -425 vlineto
          endchar
        </CharString>
        <CharString name="daggerdbl">
          13 21 -21 210 75 140 50 callsubr
          210 140 75 -140 140 34 callsubr
          -140 -141 -75 141 -210 vlineto
          endchar
        </CharString>
        <CharString name="degree">
          -94 392 64 187 62 hstem
          30 73 156 74 vstem
          259 552 rmoveto
          -45 -17 -51 -61 -61 -17 51 45 45 17 46 61 61 17 -46 -45 vhcurveto
          74 -1 rmoveto
          87 -43 67 -109 -109 -42 -68 -86 -86 42 -73 109 109 43 72 87 vhcurveto
          endchar
        </CharString>
        <CharString name="dieresis">
          -102 595 80 hstem
          35 22 callsubr
          vstem
          320 595 -82 callsubr
        </CharString>
        <CharString name="divide">
          93 65 100 110 75 110 100 hstem
          225 100 cntrmask 11100000
          465 275 -19 callsubr
          240 -210 rmoveto
          -38 callsubr
          100 395 -27 callsubr
        </CharString>
        <CharString name="dollar">
          13 -89 -21 105 73 534 73 105 -20 hstem
          82 89 21 85 22 89 vstem
          277 -110 rmoveto
          113 vlineto
          71 18 40 51 122 vvcurveto
          129 -51 50 -96 20 vhcurveto
          -54 11 -16 35 66 vvcurveto
          74 38 23 50 35 37 -7 44 callsubr
          -27 7 -27 7 -34 1 rrcurveto
          105 -85 -114 vlineto
          -69 -19 -41 -51 -102 vvcurveto
          -97 44 -66 102 -21 vhcurveto
          46 -9 25 -30 -87 vvcurveto
          -76 -20 -40 -69 -46 -39 7 8 -31 97 callsubr
          31 -9 33 -5 34 -1 rrcurveto
          -105 vlineto
          endchar
        </CharString>
        <CharString name="dotaccent">
          -293 615 85 hstem
          35 85 vstem
          120 615 rmoveto
          85 -85 -85 vlineto
          endchar
        </CharString>
        <CharString name="dotlessi">
          -212 21 -21 500 -45 callsubr
          endchar
        </CharString>
        <CharString name="dotmath">
          -69 callsubr
        </CharString>
        <CharString name="e">
          11 -31 callsubr
          -101 callsubr
          endchar
        </CharString>
        <CharString name="eacute">
          -98 callsubr
          18 144 -74 callsubr
        </CharString>
        <CharString name="ecircumflex">
          -98 callsubr
          159 144 -83 callsubr
        </CharString>
        <CharString name="edieresis">
          11 -31 callsubr
          88 80 hstemhm
          65 85 -43 22 callsubr
          -67 83 hintmask 11111001
          -105 callsubr
          hintmask 11110110
          147 159 -82 callsubr
        </CharString>
        <CharString name="egrave">
          -98 callsubr
          74 144 -59 callsubr
        </CharString>
        <CharString name="eight">
          29 -7 71 271 61 240 71 hstemhm
          55 86 -73 85 180 85 -73 86 hintmask 11110010
          345 188 rmoveto
          -95 -33 -29 -69 -69 -33 29 95 91 14 26 54 30 vhcurveto
          120 16 -41 -106 hvcurveto
          hintmask 11101100
          -12 335 rmoveto
          -57 -13 -50 -48 -20 vhcurveto
          -97 -22 35 92 74 23 39 67 67 23 -39 -74 hvcurveto
          hintmask 11110010
          98 -325 rmoveto
          98 -27 61 -65 15 vhcurveto
          hintmask 11101100
          62 35 17 40 67 vvcurveto
          149 -72 44 -103 -103 -72 -44 -149 -68 26 -63 48 -23 vhcurveto
          hintmask 11110010
          -42 -27 -45 -27 -108 vvcurveto
          -140 53 -65 135 135 53 65 140 vhcurveto
          endchar
        </CharString>
        <CharString name="ellipsis">
          213 0 100 hstem
          65 100 120 100 120 100 cntrmask 01110000
          165 4 callsubr
          320 4 callsubr
          320 4 callsubr
          endchar
        </CharString>
        <CharString name="emdash">
          148 275 75 hstem
          540 74 callsubr
          -475 84 callsubr
        </CharString>
        <CharString name="endash">
          27 callsubr
        </CharString>
        <CharString name="equal">
          93 175 75 125 75 hstem
          465 175 -19 callsubr
          380 200 -14 callsubr
        </CharString>
        <CharString name="eth">
          46 -7 72 327 72 173 70 43 -20 hstem
          70 85 188 85 vstem
          272 614 rmoveto
          44 -23 20 -49 5 -109 rrcurveto
          14 -23 -37 17 -49 hhcurveto
          -140 -22 -100 -144 -171 76 -56 100 139 43 66 330 180 -42 76 -76 33 hvcurveto
          42 72 rlineto
          -82 hlineto
          -31 -53 -37 6 -42 2 -46 2 rlinecurve
          -70 vlineto
          33 -2 29 -1 25 -2 -44 -76 rcurveline
          82 hlineto
          -164 vmoveto
          51 39 -21 -7 14 hvcurveto
          -262 -1 -30 -37 -60 hhcurveto
          -77 -20 52 94 112 12 69 72 hvcurveto
          endchar
        </CharString>
        <CharString name="exclam">
          -207 0 100 600 -20 hstemhm
          75 100 -93 85 hintmask 11100000
          175 4 callsubr
          hintmask 11010000
          92 208 rmoveto
          492 -85 -492 vlineto
          endchar
        </CharString>
        <CharString name="exclamdown">
          -207 -179 -21 600 100 hstemhm
          75 100 -92 85 hintmask 11100000
          75 500 rmoveto
          -100 100 100 vlineto
          hintmask 11010000
          -92 -208 rmoveto
          -492 85 492 vlineto
          endchar
        </CharString>
        <CharString name="f">
          -146 21 -21 427 -52 callsubr
          -427 85 427 vlineto
          endchar
        </CharString>
        <CharString name="fi">
          58 21 -21 427 73 137 70 hstem
          95 85 170 85 vstem
          414 687 rmoveto
          12 -53 -56 8 25 callsubr
          170 -427 85 500 -255 65 vlineto
          45 13 27 82 36 54 -6 -14 49 vhcurveto
          endchar
        </CharString>
        <CharString name="five">
          -57 -177 73 278 73 195 73 hstem
          65 85 114 86 vstem
          330 442 rmoveto
          73 -265 -341 110 vlineto
          66 23 -29 -115 -85 -21 -49 -59 -55 -56 13 4 -18 hvcurveto
          -73 vlineto
          -6 30 44 -11 51 hhcurveto
          110 60 50 167 144 -36 63 -144 hvcurveto
          -20 195 hlineto
          endchar
        </CharString>
        <CharString name="fl">
          73 -2 72 -49 -21 427 73 137 70 -7 -20 hstemhm
          95 85 170 85 hintmask 10110110
          276 427 rmoveto
          73 -96 65 vlineto
          45 13 27 82 20 27 -2 -3 28 vhcurveto
          -520 vlineto
          -91 46 18 callsubr
          -44 callsubr
          hintmask 10101110
          583 -85 vlineto
          hintmask 01110110
          2 -12 -33 5 25 callsubr
          vlineto
          endchar
        </CharString>
        <CharString name="florin">
          -147 -175 72 530 -52 callsubr
          -475 vlineto
          16 callsubr
          82 42 57 75 hvcurveto
          470 vlineto
          endchar
        </CharString>
        <CharString name="four">
          -24 -149 -21 170 73 442 -20 hstem
          254 79 vstem
          403 hmoveto
          73 -70 199 -75 vlineto
          -8 -199 rlineto
          -117 hlineto
          97 442 rlineto
          -81 hlineto
          -99 -431 rlineto
          -84 200 -170 83 170 vlineto
          endchar
        </CharString>
        <CharString name="fraction">
          8 callsubr
        </CharString>
        <CharString name="g">
          64 -190 73 142 75 57 69 200 70 -60 60 -60 71 hstemhm
          60 85 -60 82 193 85 -69 87 hintmask 1111001010000000
          445 325 rmoveto
          40 -8 35 -15 28 vhcurveto
          69 -3 rlineto
          75 vlineto
          -145 -7 rlineto
          hintmask 1110011010000000
          9 -22 -27 5 -29 hhcurveto
          -111 -97 -30 -144 -65 14 -47 38 -29 hvcurveto
          hintmask 1111000101000000
          -17 -19 -10 -25 -40 vvcurveto
          -31 19 -42 23 -21 vhcurveto
          5 40 88 6 37 hhcurveto
          65 19 -24 -50 -38 -27 -30 -67 -64 -84 8 9 -51 hvcurveto
          -72 vlineto
          -7 37 104 -11 50 hhcurveto
          107 82 41 100 123 -70 26 -96 -33 -47 -4 -4 -45 hvcurveto
          -3 9 -2 9 10 vvcurveto
          14 4 16 6 13 vhcurveto
          -4 19 22 -2 25 hhcurveto
          hintmask 1111001010000000
          137 65 55 113 hvcurveto
          -85 8 rmoveto
          -90 -51 -17 -66 -77 -21 42 57 vhcurveto
          hintmask 1110101010000000
          77 27 34 86 80 22 -48 -55 vhcurveto
          endchar
        </CharString>
        <CharString name="germandbls">
          62 -7 72 -44 -21 635 72 hstemhm
          80 85 49 80 47 74 -45 89 hintmask 10111010
          459 156 rmoveto
          100 -65 43 -66 27 vhcurveto
          -25 10 -9 17 19 vvcurveto
          39 25 22 80 vhcurveto
          hintmask 01111100
          10 51 6 24 49 vvcurveto
          86 -53 64 -111 -105 -66 -63 -111 vhcurveto
          -533 85 540 vlineto
          65 34 30 50 65 27 -37 -36 -27 -3 -20 -6 -19 vhcurveto
          -72 -12 -46 -38 -69 vvcurveto
          -63 24 -32 57 -26 vhcurveto
          hintmask 10111010
          57 -26 18 -25 -54 vvcurveto
          -45 -22 -41 -55 -23 -30 5 6 -22 vhcurveto
          -74 vlineto
          -5 19 40 -4 13 hhcurveto
          106 63 43 120 hvcurveto
          endchar
        </CharString>
        <CharString name="grave">
          -154 52 callsubr
          260 580 -59 callsubr
        </CharString>
        <CharString name="greater">
          93 126 -21 459 31 callsubr
          316 -136 -316 -137 rlineto
          -94 vlineto
          endchar
        </CharString>
        <CharString name="greaterequal">
          93 0 75 489 31 callsubr
          308 -136 -308 -117 rlineto
          -94 vlineto
          380 -125 -14 callsubr
        </CharString>
        <CharString name="guillemotleft">
          8 -11 callsubr
          226 hmoveto
          -26 callsubr
          endchar
        </CharString>
        <CharString name="guillemotright">
          8 28 callsubr
          301 92 rmoveto
          -25 callsubr
          -94 hmoveto
          -25 callsubr
          endchar
        </CharString>
        <CharString name="guilsinglleft">
          -152 -11 callsubr
          endchar
        </CharString>
        <CharString name="guilsinglright">
          -152 28 callsubr
          141 92 rmoveto
          -25 callsubr
          endchar
        </CharString>
        <CharString name="h">
          49 91 callsubr
          193 72 callsubr
          181 85 vstem
          -61 callsubr
          -46 -38 -16 -28 -31 vhcurveto
          237 -85 -700 vlineto
          endchar
        </CharString>
        <CharString name="hungarumlaut">
          6 619 -21 147 -20 hstem
          258 745 67 callsubr
          317 147 67 callsubr
          endchar
        </CharString>
        <CharString name="hyphen">
          26 callsubr
        </CharString>
        <CharString name="i">
          10 callsubr
          130 90 hstem
          80 85 vstem
          170 56 callsubr
          90 -610 rmoveto
          500 -85 -500 vlineto
          endchar
        </CharString>
        <CharString name="iacute">
          -51 callsubr
          56 580 -74 callsubr
        </CharString>
        <CharString name="icircumflex">
          -51 callsubr
          199 580 -83 callsubr
        </CharString>
        <CharString name="idieresis">
          10 callsubr
          115 80 hstem
          -20 85 15 85 15 85 cntrmask 00011100
          -20 callsubr
          185 595 -82 callsubr
        </CharString>
        <CharString name="igrave">
          -51 callsubr
          109 580 rmoveto
          -109 135 rlineto
          -104 hlineto
          132 -8 callsubr
        </CharString>
        <CharString name="infinity">
          273 146 73 182 73 hstem
          45 83 199 77 198 83 vstem
          224 401 rmoveto
          47 40 -23 -39 16 hvcurveto
          -87 -25 -33 -78 -62 -34 24 67 67 35 24 61 vhcurveto
          146 -176 rmoveto
          -62 35 47 -17 52 hhcurveto
          123 58 61 103 103 -58 61 -123 -68 -52 -31 -48 -23 hvcurveto
          62 -35 -48 17 -52 hhcurveto
          -123 -58 -61 -103 -103 58 -61 123 68 53 31 48 23 hvcurveto
          136 -6 rmoveto
          -47 -39 23 39 -16 hvcurveto
          87 24 33 78 62 34 -24 -67 -67 -35 -24 -61 vhcurveto
          endchar
        </CharString>
        <CharString name="integral">
          -132 -240 72 921 72 hstem
          116 85 vstem
          -20 -230 rmoveto
          -4 20 31 -6 43 hhcurveto
          75 52 41 86 hvcurveto
          818 vlineto
          29 19 19 36 36 27 -4 -5 21 vhcurveto
          71 vlineto
          4 -20 -34 6 -43 hhcurveto
          -75 -52 -41 -86 hvcurveto
          -818 vlineto
          -29 -19 -19 -36 -36 -24 4 5 -21 vhcurveto
          endchar
        </CharString>
        <CharString name="j">
          -212 -175 72 603 -20 130 90 hstem
          80 85 vstem
          165 500 rmoveto
          -85 -548 hlineto
          16 callsubr
          83 41 57 75 hvcurveto
          5 653 rmoveto
          12 callsubr
          endchar
        </CharString>
        <CharString name="k">
          7 -1 callsubr
          220 72 callsubr
          vstem
          429 hmoveto
          -176 307 169 193 rlineto
          -104 hlineto
          -153 -180 rlineto
          380 -85 -700 85 214 vlineto
          30 35 135 -249 rlineto
          endchar
        </CharString>
        <CharString name="l">
          -192 -3 73 630 72 callsubr
          vstem
          225 75 rmoveto
          -44 callsubr
          583 -85 -588 46 callsubr
        </CharString>
        <CharString name="less">
          93 126 -21 459 73 callsubr
          105 rmoveto
          94 vlineto
          -310 137 310 49 callsubr
          endchar
        </CharString>
        <CharString name="lessequal">
          93 0 75 489 73 callsubr
          125 rmoveto
          94 vlineto
          -308 117 308 49 callsubr
          380 -280 -14 callsubr
        </CharString>
        <CharString name="logicaland">
          -69 callsubr
        </CharString>
        <CharString name="logicalnot">
          118 127 -21 169 75 hstem
          420 85 vstem
          505 106 rmoveto
          244 -435 -75 350 -169 vlineto
          endchar
        </CharString>
        <CharString name="lozenge">
          13 -3 callsubr
          430 350 rmoveto
          -140 350 rlineto
          -110 hlineto
          -140 -350 138 -350 rlineto
          112 hlineto
          53 350 rmoveto
          -108 -280 -108 280 108 280 rlineto
          endchar
        </CharString>
        <CharString name="lslash">
          -177 -3 73 630 -20 hstem
          90 85 vstem
          235 75 rmoveto
          -44 callsubr
          273 vlineto
          60 39 rlineto
          80 vlineto
          -60 -40 rlineto
          231 -85 -286 vlineto
          -55 -36 rlineto
          -78 vlineto
          55 35 rlineto
          -223 46 callsubr
        </CharString>
        <CharString name="m">
          273 55 callsubr
          hstemhm
          80 85 160 85 160 85 cntrmask 00011100
          hintmask 11011100
          165 hmoveto
          350 vlineto
          36 36 49 54 57 13 -32 -63 vhcurveto
          -340 85 350 vlineto
          36 36 49 54 57 13 -18 callsubr
          -38 55 -102 -53 -41 -21 -42 -32 vhcurveto
          37 -21 -36 26 -62 hhcurveto
          -46 -37 -18 -33 -30 hvcurveto
          hintmask 10111100
          -7 44 63 callsubr
        </CharString>
        <CharString name="macron">
          17 callsubr
        </CharString>
        <CharString name="minus">
          27 callsubr
        </CharString>
        <CharString name="mu">
          -73 callsubr
        </CharString>
        <CharString name="multiply">
          93 158 -21 346 -20 hstem
          392 137 rmoveto
          56 56 -116 117 116 117 -56 56 -117 -116 -117 116 -56 -56 116 -117 -116 -117 56 -56 117 116 rlineto
          endchar
        </CharString>
        <CharString name="n">
          49 55 callsubr
          hstemhm
          80 85 181 85 hintmask 11011000
          -33 callsubr
          hintmask 10111000
          -7 45 63 callsubr
        </CharString>
        <CharString name="nine">
          -4 -177 72 181 72 302 72 hstem
          50 85 178 85 vstem
          50 300 rmoveto
          -138 21 -86 136 49 35 17 13 21 vhcurveto
          -191 -4 -28 -20 -70 hhcurveto
          -43 -37 10 6 -26 hvcurveto
          -73 vlineto
          -5 17 48 -10 31 hhcurveto
          131 67 32 315 289 -39 63 -136 -94 -79 -51 -171 hvcurveto
          164 -152 rmoveto
          -72 -7 49 112 94 27 47 61 64 25 -27 -248 1 hvcurveto
          -7 -13 -35 -20 -51 hhcurveto
          endchar
        </CharString>
        <CharString name="notequal">
          93 91 -21 105 75 125 75 105 73 callsubr
          375 rmoveto
          75 -65 vlineto
          65 105 rlineto
          -80 hlineto
          -65 -105 rlineto
          -235 -75 189 hlineto
          -78 -125 rlineto
          -111 -75 65 hlineto
          -65 -105 76 callsubr
          65 105 rlineto
          235 75 -189 hlineto
          78 125 rlineto
          endchar
        </CharString>
        <CharString name="ntilde">
          49 55 callsubr
          111 57 callsubr
          80 85 181 85 hintmask 11010110
          -33 callsubr
          hintmask 10101110
          -7 45 rlineto
          -70 -500 hlineto
          54 594 -29 callsubr
          hintmask 11010110
          -86 callsubr
          hintmask 11001110
          -68 callsubr
        </CharString>
        <CharString name="numbersign">
          13 21 -21 180 75 200 75 170 -20 hstem
          115 80 80 80 vstem
          266 255 rmoveto
          -80 hlineto
          18 200 76 callsubr
          126 -275 rmoveto
          6 75 rlineto
          -70 hlineto
          18 200 rlineto
          70 hlineto
          6 75 rlineto
          -70 59 callsubr
          -80 59 callsubr
          -70 hlineto
          -6 -75 rlineto
          70 hlineto
          -18 -200 rlineto
          -70 hlineto
          -6 -75 rlineto
          70 62 callsubr
          80 62 callsubr
          endchar
        </CharString>
        <CharString name="o">
          11 callsubr
          -99 callsubr
          endchar
        </CharString>
        <CharString name="oacute">
          -94 callsubr
          -90 335 -74 callsubr
        </CharString>
        <CharString name="ocircumflex">
          -94 callsubr
          54 335 -83 callsubr
        </CharString>
        <CharString name="odieresis">
          11 callsubr
          88 80 hstemhm
          65 87 -39 22 callsubr
          -40 87 hintmask 11110010
          -106 callsubr
          hintmask 11101100
          40 350 -82 callsubr
        </CharString>
        <CharString name="oe">
          304 -31 callsubr
          hstem
          65 95 callsubr
          85 175 83 vstem
          701 -55 callsubr
          -63 -47 -22 -45 -29 vhcurveto
          44 -30 -48 23 -68 hhcurveto
          -67 callsubr
          63 48 16 43 31 hvcurveto
          -47 29 48 -12 64 hhcurveto
          36 56 8 9 32 hvcurveto
          73 vlineto
          -6 -29 -50 -12 -85 callsubr
          114 5 25 34 64 hhcurveto
          -180 -191 -91 callsubr
          endchar
        </CharString>
        <CharString name="ogonek">
          -139 -180 68 172 -20 hstem
          65 79 vstem
          254 -105 rmoveto
          -3 -18 -33 -4 -15 hhcurveto
          -30 -14 8 35 32 18 57 26 40 hvcurveto
          -69 hlineto
          -25 -28 -29 -53 -49 vvcurveto
          -83 29 -27 85 24 32 5 5 19 vhcurveto
          endchar
        </CharString>
        <CharString name="ograve">
          -94 callsubr
          -24 335 -59 callsubr
        </CharString>
        <CharString name="one">
          -47 0 75 440 -20 hstem
          186 85 vstem
          370 hmoveto
          75 -99 440 -95 vlineto
          -121 -50 rlineto
          -80 vlineto
          131 52 rlineto
          -362 -121 84 callsubr
        </CharString>
        <CharString name="onehalf">
          418 -79 -21 100 65 140 66 165 64 200 87 callsubr
          486 74 vstem
          319 -50 callsubr
          730 -205 -58 callsubr
          83 810 rmoveto
          -83 hlineto
          -317 -910 76 callsubr
          endchar
        </CharString>
        <CharString name="onequarter">
          68 callsubr
          24 66 429 87 callsubr
          427 71 vstem
          319 -50 callsubr
          711 -88 -32 callsubr
          -99 693 -24 callsubr
        </CharString>
        <CharString name="onesuperior">
          -47 205 66 429 -20 hstem
          182 75 vstem
          329 -50 callsubr
          endchar
        </CharString>
        <CharString name="ordfeminine">
          -62 0 75 248 52 -52 60 121 56 86 59 hstemhm
          60 71 116 70 hintmask 11011110
          350 326 rmoveto
          49 vlineto
          -24 -9 9 15 hvcurveto
          184 vlineto
          86 -30 36 -98 -37 -36 -6 -9 -28 vhcurveto
          -59 vlineto
          10 37 29 5 43 hhcurveto
          37 13 -21 -27 hvcurveto
          -38 -53 vlineto
          -84 -50 -47 -81 -91 57 -18 55 47 30 12 24 19 hvcurveto
          -28 14 32 -5 13 hhcurveto
          -9 -326 rmoveto
          75 -251 -75 vlineto
          hintmask 10111110
          120 383 rmoveto
          -40 -16 16 38 49 27 18 32 hvcurveto
          57 -70 hlineto
          -15 -8 -36 -52 vhcurveto
          endchar
        </CharString>
        <CharString name="ordmasculine">
          -41 0 75 246 58 270 58 hstem
          65 72 142 72 vstem
          279 508 rmoveto
          -88 -10 -41 -61 -61 -10 41 88 88 10 53 61 61 10 -53 -88 vhcurveto
          72 14 rmoveto
          127 -45 58 -98 -98 -45 -58 -127 -158 50 -43 93 93 50 43 158 vhcurveto
          -7 -522 rmoveto
          75 -276 84 callsubr
        </CharString>
        <CharString name="oslash">
          53 -68 -21 82 70 374 70 82 -20 hstem
          65 95 callsubr
          87 vstem
          445 96 callsubr
          108 -25 70 -51 37 vhcurveto
          38 114 rlineto
          -77 hlineto
          -29 -86 rlineto
          3 -14 -16 1 -16 hhcurveto
          -130 -60 -77 -170 -132 26 -71 50 -35 hvcurveto
          -37 -111 rlineto
          78 hlineto
          28 85 rlineto
          -2 14 15 -1 16 hhcurveto
          124 66 57 210 hvcurveto
          -293 -15 rmoveto
          142 23 50 80 8 8 -1 -1 7 vhcurveto
          -107 -322 rlineto
          -13 29 -6 43 60 vvcurveto
          206 hmoveto
          -130 -28 -52 -75 -8 -7 0 1 -7 vhcurveto
          107 323 rlineto
          13 -31 5 -46 -65 vvcurveto
          endchar
        </CharString>
        <CharString name="otilde">
          11 callsubr
          84 57 callsubr
          65 95 callsubr
          87 hintmask 11011100
          -106 callsubr
          -238 349 -78 callsubr
        </CharString>
        <CharString name="p">
          42 78 callsubr
          -7 -20 hstemhm
          80 85 182 87 hintmask 11101100
          -7 callsubr
          -47 -40 -18 -32 -31 hvcurveto
          hintmask 11011100
          -8 43 rlineto
          -70 -670 hlineto
          hintmask 11101100
          180 605 -60 callsubr
        </CharString>
        <CharString name="paragraph">
          53 21 -21 374 68 198 67 -7 -20 hstemhm
          55 76 91 83 55 80 hintmask 11011110
          440 hmoveto
          700 -80 -700 vlineto
          -55 442 rmoveto
          -102 hlineto
          -59 -13 37 62 hvcurveto
          hintmask 11101110
          71 29 28 74 20 24 -2 -5 27 vhcurveto
          hintmask 11011110
          67 vlineto
          hintmask 11101110
          0 -46 7 -54 -76 -74 -44 -120 -141 72 -28 71 vhcurveto
          24 -374 83 hlineto
          endchar
        </CharString>
        <CharString name="parenleft">
          88 callsubr
          55 85 vstem
          55 350 rmoveto
          -187 31 -147 91 -136 vhcurveto
          83 hlineto
          -83 141 -37 137 192 vvcurveto
          192 37 137 83 141 vhcurveto
          -83 hlineto
          -91 -136 -31 -147 -187 vvcurveto
          endchar
        </CharString>
        <CharString name="parenright">
          88 callsubr
          180 85 vstem
          265 350 rmoveto
          187 -31 147 -91 136 vhcurveto
          -83 hlineto
          83 -141 37 -137 -192 vvcurveto
          -192 -37 -137 -83 -141 vhcurveto
          83 hlineto
          91 136 31 147 187 vvcurveto
          endchar
        </CharString>
        <CharString name="partialdiff">
          13 79 callsubr
          58 85 179 85 vstem
          58 213 rmoveto
          -179 83 -41 89 125 52 58 333 274 -83 49 -125 -31 -48 -10 -5 -17 vhcurveto
          -71 vlineto
          6 26 37 10 43 hhcurveto
          73 35 -26 -198 4 hvcurveto
          14 -21 -35 17 -49 hhcurveto
          -134 -24 -93 -138 hvcurveto
          165 159 rmoveto
          51 35 -20 -7 13 hvcurveto
          -245 -2 -26 -35 -58 hhcurveto
          -70 -23 47 94 112 8 54 72 hvcurveto
          endchar
        </CharString>
        <CharString name="percent">
          399 -6 callsubr
          hintmask 1011101111000000
          290 496 rmoveto
          -100 callsubr
          hintmask 0111011111000000
          15 callsubr
          hintmask 1011101111000000
          -100 callsubr
          endchar
        </CharString>
        <CharString name="period">
          0 -30 callsubr
          4 callsubr
          endchar
        </CharString>
        <CharString name="periodcentered">
          -69 callsubr
        </CharString>
        <CharString name="perthousand">
          721 -6 callsubr
          48 69 136 69 hintmask 1011101111110000
          290 496 rmoveto
          -100 callsubr
          hintmask 0111011111110000
          15 callsubr
          hintmask 1011101111110000
          -100 callsubr
          253 -4 rmoveto
          -100 callsubr
          endchar
        </CharString>
        <CharString name="pi">
          97 0 70 -51 -21 429 73 hstemhm
          124 85 125 85 hintmask 10111000
          509 427 rmoveto
          73 -464 -73 79 64 callsubr
          125 -315 vlineto
          hintmask 01111000
          -91 46 1 callsubr
          310 vlineto
          endchar
        </CharString>
        <CharString name="plus">
          93 139 -21 157 6 callsubr
          -151 -75 151 -157 80 157 vlineto
          endchar
        </CharString>
        <CharString name="plusminus">
          93 0 75 200 6 callsubr
          -150 -75 150 -132 80 132 vlineto
          150 -275 -14 callsubr
        </CharString>
        <CharString name="product">
          107 0 70 -51 -21 627 75 hstemhm
          124 87 131 87 hintmask 10111000
          519 625 rmoveto
          75 -474 -75 79 -625 87 625 131 -513 vlineto
          hintmask 01111000
          -91 48 1 callsubr
          508 vlineto
          endchar
        </CharString>
        <CharString name="q">
          47 78 callsubr
          hstem
          65 87 187 85 vstem
          424 -170 rmoveto
          665 vlineto
          5 -37 -32 7 -72 hhcurveto
          -153 -65 -82 -197 -156 36 -79 127 46 36 15 26 29 hvcurveto
          -204 vlineto
          -95 235 -10 callsubr
        </CharString>
        <CharString name="question">
          -97 0 100 534 73 hstemhm
          104 100 -93 85 44 85 hintmask 11101000
          204 4 callsubr
          221 540 rmoveto
          140 -68 27 -110 -36 -50 -10 -6 -26 97 callsubr
          6 31 50 10 41 hhcurveto
          50 33 -20 -65 -65 -4 -7 -65 -77 hvcurveto
          hintmask 11011000
          -60 -71 rlineto
          -121 85 96 vlineto
          54 64 rlineto
          67 79 8 15 78 vvcurveto
          endchar
        </CharString>
        <CharString name="questiondown">
          -97 -207 73 534 100 hstemhm
          35 85 36 100 -92 85 hintmask 11110000
          156 500 rmoveto
          -100 100 100 vlineto
          -221 -540 rmoveto
          -140 68 -27 110 36 50 10 6 26 vhcurveto
          73 vlineto
          -6 -31 -50 -10 -41 hhcurveto
          -50 -33 20 65 65 4 7 65 77 hvcurveto
          hintmask 11101000
          60 71 rlineto
          121 -85 -96 vlineto
          -54 -64 rlineto
          -67 -79 -8 -15 -78 vvcurveto
          endchar
        </CharString>
        <CharString name="quotedbl">
          -97 53 callsubr
          55 95 60 24 callsubr
          175 157 rmoveto
          12 callsubr
          20 47 callsubr
          55 hlineto
          endchar
        </CharString>
        <CharString name="quotedblbase">
          -82 -136 3 callsubr
          80 95 60 95 vstem
          330 hmoveto
          -5 callsubr
        </CharString>
        <CharString name="quotedblleft">
          -77 473 3 callsubr
          55 95 60 95 vstem
          55 542 13 callsubr
          95 -157 13 callsubr
          endchar
        </CharString>
        <CharString name="quotedblright">
          -77 53 callsubr
          75 95 60 95 vstem
          325 610 rmoveto
          -5 callsubr
        </CharString>
        <CharString name="quoteleft">
          -232 473 3 callsubr
          55 95 vstem
          55 542 13 callsubr
          endchar
        </CharString>
        <CharString name="quoteright">
          -232 53 callsubr
          75 95 vstem
          170 610 rmoveto
          -23 callsubr
        </CharString>
        <CharString name="quotesinglbase">
          -237 -136 3 callsubr
          80 95 vstem
          175 hmoveto
          -23 callsubr
        </CharString>
        <CharString name="quotesingle">
          -252 53 callsubr
          55 24 callsubr
          endchar
        </CharString>
        <CharString name="r">
          -119 21 -21 422 85 -7 -20 hstemhm
          80 85 hintmask 11010000
          165 hmoveto
          308 vlineto
          54 22 60 66 19 24 -5 -4 17 vhcurveto
          89 vlineto
          3 -12 -17 2 -24 hhcurveto
          -49 -32 -24 -34 -23 hvcurveto
          hintmask 10110000
          -6 51 63 callsubr
        </CharString>
        <CharString name="radical">
          98 21 -21 745 75 hstem
          570 745 rmoveto
          75 -177 vlineto
          -177 -759 -92 331 rlineto
          -89 hlineto
          119 -392 rlineto
          128 hlineto
          175 745 rlineto
          endchar
        </CharString>
        <CharString name="registered">
          343 -7 68 255 48 137 46 92 68 hstem
          85 77 148 54 91 55 128 77 vstem
          715 350 -65 callsubr
          -128 85 rmoveto
          67 -26 45 -84 -46 -44 -3 0 vhcurveto
          -385 54 157 38 vlineto
          67 47 callsubr
          61 hlineto
          -75 165 rlineto
          38 16 17 39 56 vvcurveto
          -55 -4 rmoveto
          -60 -18 -7 -30 vhcurveto
          -43 135 hlineto
          0 12 2 31 39 9 -17 -53 vhcurveto
          endchar
        </CharString>
        <CharString name="ring">
          -197 543 54 98 52 hstem
          35 57 75 58 vstem
          167 -47 callsubr
          endchar
        </CharString>
        <CharString name="s">
          -55 -7 73 369 72 -79 callsubr
          endchar
        </CharString>
        <CharString name="scaron">
          -55 -7 73 369 72 207 -20 -79 callsubr
          -297 569 -48 callsubr
        </CharString>
        <CharString name="section">
          13 -7 72 571 71 hstemhm
          83 86 -68 83 102 83 -68 86 hintmask 11101000
          83 347 rmoveto
          -69 35 -55 104 -17 vhcurveto
          44 -7 20 -26 -39 vvcurveto
          -26 -19 -43 -58 -54 -27 7 8 -34 vhcurveto
          -72 vlineto
          -5 20 35 -10 52 hhcurveto
          95 73 40 106 38 -14 42 -33 21 hvcurveto
          hintmask 11010100
          37 22 28 34 57 vvcurveto
          70 -35 54 -104 17 vhcurveto
          -44 7 -20 24 40 vvcurveto
          30 19 41 58 54 27 -8 -9 34 vhcurveto
          74 vlineto
          5 -20 -35 9 -52 hhcurveto
          -95 -73 -39 -108 -42 15 -39 29 -20 hvcurveto
          hintmask 11100100
          -36 -23 -26 -35 -54 vvcurveto
          218 1 rmoveto
          -36 -30 -34 -20 -10 vhcurveto
          -73 12 -9 27 45 vvcurveto
          36 21 36 25 9 vhcurveto
          75 -13 11 -27 -45 vvcurveto
          endchar
        </CharString>
        <CharString name="semicolon">
          -119 -21 540 100 23 callsubr
          72 540 -27 callsubr
        </CharString>
        <CharString name="seven">
          -82 -149 -21 610 75 hstem
          335 418 rmoveto
          97 -305 -75 224 vlineto
          -167 -610 rlineto
          87 hlineto
          endchar
        </CharString>
        <CharString name="six">
          -4 79 callsubr
          55 85 178 85 vstem
          403 220 rmoveto
          138 -17 86 -140 -50 -34 -17 -14 -22 vhcurveto
          194 5 35 30 73 hhcurveto
          43 37 -8 -6 26 hvcurveto
          71 vlineto
          5 -17 -48 8 -31 hhcurveto
          -125 -83 -52 -275 -333 48 -54 123 103 74 56 171 hvcurveto
          -164 152 rmoveto
          72 7 -49 -112 -94 -28 -52 -64 -59 -26 31 249 -1 hvcurveto
          7 12 36 20 51 hhcurveto
          endchar
        </CharString>
        <CharString name="slash">
          -132 42 callsubr
          320 810 rmoveto
          -79 hlineto
          -236 -920 rlineto
          79 hlineto
          endchar
        </CharString>
        <CharString name="space">
          -197 endchar
        </CharString>
        <CharString name="sterling">
          13 0 73 267 73 219 75 hstem
          136 87 vstem
          223 476 rmoveto
          136 19 20 79 16 46 -4 -5 28 vhcurveto
          75 vlineto
          5 -32 -41 4 -23 hhcurveto
          -127 -52 -41 -197 hvcurveto
          -56 -70 -73 70 -267 -70 -73 355 73 -198 267 128 73 -128 vlineto
          endchar
        </CharString>
        <CharString name="summation">
          13 -170 74 721 75 hstem
          425 -170 rmoveto
          74 -299 vlineto
          177 363 -162 358 rlineto
          273 75 -361 -95 hlineto
          155 -338 -168 -343 rlineto
          -94 vlineto
          endchar
        </CharString>
        <CharString name="t">
          -136 -7 72 360 75 120 -20 hstem
          90 85 vstem
          291 425 rmoveto
          75 -116 120 -85 -120 -65 -75 65 -300 vlineto
          -75 34 -57 81 36 37 8 4 13 vhcurveto
          70 vlineto
          -4 -15 -21 -6 -30 hhcurveto
          -42 -8 36 19 hvcurveto
          305 vlineto
          endchar
        </CharString>
        <CharString name="thorn">
          42 -149 -21 163 37 callsubr
          -7 callsubr
          -44 -37 -16 -28 -30 hvcurveto
          237 -85 -870 vlineto
          180 605 -60 callsubr
        </CharString>
        <CharString name="three">
          -62 -177 76 248 42 -42 20 callsubr
          hstemhm
          243 85 -74 86 hintmask 11010100
          340 27 rmoveto
          98 -28 58 -61 6 vhcurveto
          hintmask 10111000
          53 16 24 55 68 vvcurveto
          149 -59 45 -103 -51 -59 -15 -2 -11 97 callsubr
          6 29 50 11 44 hhcurveto
          50 25 -33 -79 -40 -4 -77 -81 hvcurveto
          -72 -73 82 hlineto
          hintmask 11010100
          71 15 -39 -91 -77 -33 -41 -51 -44 -62 11 5 -24 hvcurveto
          -75 vlineto
          -2 9 73 -15 49 hhcurveto
          111 58 55 149 hvcurveto
          endchar
        </CharString>
        <CharString name="threequarters">
          68 callsubr
          19 63 175 63 141 63 105 -20 hstemhm
          236 74 -66 75 348 71 hintmask 1111111011000000
          319 80 callsubr
          hintmask 1111111101000000
          -46 callsubr
          hintmask 1111111011000000
          -15 callsubr
          469 -234 -32 callsubr
          -103 693 -24 callsubr
        </CharString>
        <CharString name="threesuperior">
          -47 200 63 175 63 141 63 hstemhm
          229 74 -66 75 hintmask 11101000
          312 80 callsubr
          hintmask 11110000
          -46 callsubr
          hintmask 11101000
          -15 callsubr
          endchar
        </CharString>
        <CharString name="tilde">
          -107 591 57 callsubr
          hintmask 01000000
          35 594 -29 callsubr
          hintmask 10000000
          -86 callsubr
          hintmask 01000000
          -68 callsubr
        </CharString>
        <CharString name="trademark">
          283 215 -21 447 59 hstem
          156 68 100 65 220 66 vstem
          675 194 rmoveto
          506 -113 vlineto
          -60 -237 -62 237 rlineto
          -400 -59 116 -447 68 447 100 -447 65 450 hlineto
          79 -283 rlineto
          63 hlineto
          78 283 rlineto
          -450 vlineto
          endchar
        </CharString>
        <CharString name="two">
          -47 0 76 373 73 hstem
          268 85 vstem
          360 hmoveto
          76 -205 vlineto
          125 107 rlineto
          58 50 15 63 65 vvcurveto
          99 -52 62 -120 -53 -57 -14 -3 -13 vhcurveto
          -74 vlineto
          6 23 58 12 42 hhcurveto
          59 28 -34 -45 -77 -13 -23 -60 -52 hvcurveto
          -150 -130 rlineto
          -88 vlineto
          endchar
        </CharString>
        <CharString name="twosuperior">
          -47 205 65 371 64 hstem
          231 74 vstem
          312 205 -58 callsubr
          endchar
        </CharString>
        <CharString name="u">
          89 callsubr
          hstemhm
          75 58 callsubr
          hintmask 01111000
          -22 callsubr
          hintmask 10111000
          -88 callsubr
          hintmask 01111000
          7 -41 rlineto
          endchar
        </CharString>
        <CharString name="uacute">
          -92 callsubr
          -76 580 -74 callsubr
        </CharString>
        <CharString name="ucircumflex">
          -92 callsubr
          61 580 -83 callsubr
        </CharString>
        <CharString name="udieresis">
          89 callsubr
          115 80 hstemhm
          75 85 -58 22 callsubr
          -61 85 hintmask 01111001
          -22 callsubr
          hintmask 10111010
          -88 callsubr
          hintmask 01111001
          7 -41 rlineto
          hintmask 10110110
          46 595 -82 callsubr
        </CharString>
        <CharString name="ugrave">
          -92 callsubr
          -19 580 -59 callsubr
        </CharString>
        <CharString name="underscore">
          53 -170 75 hstem
          507 -170 rmoveto
          75 -504 84 callsubr
        </CharString>
        <CharString name="uni00A0">
          -197 endchar
        </CharString>
        <CharString name="uni00AD">
          26 callsubr
        </CharString>
        <CharString name="uni02C9">
          17 callsubr
        </CharString>
        <CharString name="uni03BC">
          -73 callsubr
        </CharString>
        <CharString name="uni2215">
          8 callsubr
        </CharString>
        <CharString name="uni2219">
          -69 callsubr
        </CharString>
        <CharString name="uni2224">
          -69 callsubr
        </CharString>
        <CharString name="uni25AF">
          -36 callsubr
        </CharString>
        <CharString name="v">
          5 70 callsubr
          427 500 rmoveto
          -88 hlineto
          -105 -429 -108 429 rlineto
          -91 hlineto
          135 -500 rlineto
          123 hlineto
          endchar
        </CharString>
        <CharString name="w">
          213 70 callsubr
          630 500 rmoveto
          -83 hlineto
          -81 -436 -83 346 rlineto
          -85 hlineto
          -89 -346 -81 436 rlineto
          -88 hlineto
          100 -500 rlineto
          128 hlineto
          69 271 63 -271 rlineto
          131 hlineto
          endchar
        </CharString>
        <CharString name="x">
          7 70 callsubr
          429 hmoveto
          -148 262 135 238 rlineto
          -93 hlineto
          -87 -165 -86 165 rlineto
          -98 hlineto
          133 -242 -145 -258 rlineto
          94 hlineto
          100 185 95 -185 rlineto
          endchar
        </CharString>
        <CharString name="y">
          66 callsubr
          hstem
          -87 callsubr
          endchar
        </CharString>
        <CharString name="yacute">
          66 callsubr
          235 -20 hstem
          -87 callsubr
          -9 624 -74 callsubr
        </CharString>
        <CharString name="ydieresis">
          66 callsubr
          115 80 hstem
          90 22 callsubr
          vstem
          -87 callsubr
          92 639 -82 callsubr
        </CharString>
        <CharString name="yen">
          13 21 -21 115 75 75 75 360 -20 hstem
          189 90 vstem
          409 115 rmoveto
          75 -130 75 130 75 -128 vlineto
          169 360 rlineto
          -91 hlineto
          -121 -273 -122 273 rlineto
          -96 hlineto
          166 -360 rlineto
          -127 -75 130 -75 -130 -75 130 -115 90 115 hlineto
          endchar
        </CharString>
        <CharString name="z">
          -54 0 74 352 74 0 callsubr
          endchar
        </CharString>
        <CharString name="zcaron">
          -54 0 74 352 74 214 -20 0 callsubr
          -77 640 -48 callsubr
        </CharString>
        <CharString name="zero">
          19 -7 72 385 72 hstem
          60 85 186 85 vstem
          331 259 rmoveto
          -135 -13 -59 -80 -80 -13 59 135 130 14 61 79 79 14 -61 -130 vhcurveto
          85 5 rmoveto
          150 -22 108 -156 -155 -23 -108 -150 -160 23 -111 155 155 23 111 160 vhcurveto
          endchar
        </CharString>
</ttFont>
